<svg xmlns="http://www.w3.org/2000/svg" width="1024" height="1024"><!-- version: lgarron / 2025-03-10 / 0.1.3 --><defs><g id="a"><path d="M380.7 632.3s-14.3 56-50.3 55.5c-12.1-.2-29-10.9-47.1-26.8-34.2 82.7-98.5 239-108.5 268.6-8.9 26.5 13 52 38.2 56 36.4 5.7 49-18.1 49-18.1s13.6 40.7 37.6 39.7c29.9-1.2 34.6-33 34.6-33s11.4 23.8 26.8 23.2c38.4-1.4 41.7-102.9 43.8-135.6 3.8-57.5 6.3-135.4 7.8-190.1-9 6.7-16.5 10.7-21.3 9.9-16.1-2.7-10.6-49.3-10.6-49.3z" style="fill:#42acde"/><path d="M403.7 75.1c-89.7-.3-201.5 32.6-200.6 99.6 1.3 87.4 52.2 62.4 41.2 111.2-4.9 21.6-59.9 49.8-65.5 153.8 2.8.7 5.3 1 7.2 1.2 14.2.7 29.9-26.3 29.9-26.3s9.5 38 35 38 50.7-26.3 50.7-26.3 15 30.3 39.6 32c20 1.6 34-8 34-8s.8 15 14.6 14c13.9-1.2 37.6-27.8 37.6-27.8 16.5 30.3 31.9 21 54.7 5.1 0 0 6.2 26.6 36.8 23.7 6-.6 12.3-1 18.5-1.5l.9-11.6c2-58.8-20.4-129.8-50.4-183-21.7-38.7-52.5-83.4-49.6-107.3 3.5-28.3 46.7-28.4 46.7-28.4l-48.5-16 24-37a279.7 279.7 0 0 0-56.8-5.4Z" style="fill:#2f9fdf"/><path d="M215.9 414.6s-15.7 27-30 26.3c-1.8-.1-4.3-.5-7-1.2l-.3 3c-2.3 52 7.7 100.3 29.7 132 35.1 50.7 92.6 112.6 122 113 36.1.6 50.4-55.4 50.4-55.4s-5.5 46.6 10.6 49.3c16 2.6 62.4-46.7 87.9-79.5 15.8-20.5 52-82.3 58.2-138.3-6.2.4-12.4 1-18.5 1.5-30.6 3-36.8-23.7-36.8-23.7-22.8 16-38.2 25.2-54.7-5 0 0-23.7 26.5-37.6 27.6-13.8 1.1-14.6-13.8-14.6-13.8s-14 9.5-34 8c-24.5-1.8-39.6-32.1-39.6-32.1s-25.2 26.3-50.7 26.3c-25.5 0-35-38-35-38z" style="fill:#0e254f"/><path d="M309.5 418.5a1.5 1.5 0 0 0-.7 0c-.6.2-1.1.8-1.5 1.8a34.7 34.7 0 0 0 4 16.6c5.5 10.6 12.4 22 23.3 27.6 4 2 8.5 3.5 12.5 3.3a36 36 0 0 0 12.5-2.3c4-2 7.6-3.8 10.8-6.2 6-4.4 7.6-6.5 7.6-9.8 0-3.3-2.7-3.5-7.6-.5-5 3-14.6 6.1-18.8 6.1-11.2 0-21.2-8-33.1-26.4-4.3-6.6-7.1-9.9-9-10.2zm174 5c-1.2-.2-2.4.4-3.8 1.7-2.3 2.3-2.7 4-2.6 10.7.5 9 4.8 19.2 11.8 24.6 4.4 3.3 13.2 6 20.4 5.8 6.8-1.1 18.8-6.6 15.3-10.3-2-1.6-5 .7-9.9.7-10.6 0-15.3-3.4-19.6-9-3.8-5-5.4-8.7-7.2-16.8-1.1-4.6-2.6-7.1-4.4-7.4zm-67.5 2.2a1 1 0 0 0-.4 0c-.4.1-.7.4-1.2.9-2.4 2-2.5 5.1-.2 12.6a41.4 41.4 0 0 0 25.3 22c7.6 1.7 14.5.6 20.3-2.7 3.8-2.4 5.3-5 4.4-7.3-4.8-2.9-7.7-1-13.3-1A39.5 39.5 0 0 1 424 435c-4.8-5.9-7-9.3-8-9.4zm-199 .8c-1 .3-1.4 2.7-1 7.2.3 5.3 1.3 8.2 4 12 3 4.5 11.5 11 14.7 11.7 2.5 1 6.9 2.3 10.7 2.3 3.8 0 8-.6 11.2-1.3 3.2-.7 6.8-2 10.3-4l1.3-.7c4-2.1 8-5.1 10.9-7.9l1.4-1.2c6.3-5.4 9.9-10.7 9.9-14.6 0-2.4-5.3-.5-14 5-16 9.8-31.1 13.2-40.9 9l-2.2-1.3-8.8-7.7a32.9 32.9 0 0 1-3.6-4.8c-1.4-2.2-2.5-3.4-3.3-3.7a1 1 0 0 0-.5 0z" style="fill:#71beea"/><path d="M221.6 468.8c-.5 0-.8.1-1.1.4-.3.2-.5.6-.6 1.2a10 10 0 0 0 .6 5.1 55 55 0 0 0 28.3 28.9 42.4 42.4 0 0 0 16.4 2c6.1-.2 12.3-1.4 16.6-3.4a48.3 48.3 0 0 0 13.7-10.6c.9-1 1.3-2 1.3-2.3 0-.6 0-.9-.3-1-.3-.3-.7-.4-1.6-.4-1.8 0-4.9.8-9.7 2.3-6.2 1.9-12.7 3-18.5 3.1-7.8.2-10.2-.4-17-3.7-4.5-2.2-12-7.7-17.7-12.8a232 232 0 0 0-7.2-6.3 63 63 0 0 0-2.4-2 12 12 0 0 0-.7-.4h-.1zm214.8 13.6c-.2 0-.5.7-.7 1.8v4a32 32 0 0 0 2.7 9.9 38.5 38.5 0 0 0 49.1 19.3c5.2-2.3 10-6.4 13-10.5 1.4-2.1 2.5-4.3 3-6.2.5-1.9.4-3.6-.3-4.9-.4-.8-.9-1.4-1.3-1.7-.3-.3-.6-.3-1-.2-.9.2-2.3 1.4-4.3 3.8-5 6.2-12.8 9.5-22.6 9.4-6.2 0-11-1.1-16-4.4-5-3.2-10.4-8.6-18-17.3-.8-1-1.7-2-2.5-2.4l-1-.6c-.1 0-.2 0 0 0zm-33.6 4.2-.6.2-1.4.7a53.5 53.5 0 0 0-4 2.5c-8 5.5-15.6 8.3-23.9 8.4-8.3 0-17.2-2.7-28-8.2a42 42 0 0 0-7.3-3c-2-.5-3.1-.5-3.6-.2-.2.1-.3.3-.4.6 0 .3 0 .8.2 1.5.4 1.3 1.4 3.1 3.1 5.5 4 5.4 10.5 10.1 19.7 14 9.3 3.9 23.8 3.5 32.4-1a42 42 0 0 0 9.1-6.5c2.6-2.6 4.5-6.5 5.3-9.6.5-1.5.6-3 .4-3.8 0-.4-.2-.7-.4-.9-.1-.2-.3-.2-.6-.2zm-132.5 30.8c-.3 0-.4 0-.5.2l-.1.5c0 .5.4 1.7 1.2 3.1a87.3 87.3 0 0 0 13.5 16.2c17 15.6 34.6 20.7 49 14.4a33.3 33.3 0 0 0 19-23c.4-2 .1-3.1-.2-3.5-.2-.2-.5-.3-1-.3l-1.7.5a24 24 0 0 0-5.7 4.6c-7.7 8-14.6 12-23 11.4-8.3-.4-18-5.2-31.7-14.3-5.2-3.4-9.4-6-12.5-7.6a15.5 15.5 0 0 0-6.3-2.2zm109.4 0c-.2 0-.3 0-.5.2-.1 0-.3.3-.4.7a9 9 0 0 0 0 3.3c.4 2.9 1.6 6.7 3.5 10.3 11 20.5 29.4 30.5 46.8 25.7a37.3 37.3 0 0 0 15.6-10c4.4-4.6 7.4-9.9 7.4-13.8 0-1.3-.1-2.3-.4-2.7 0-.3-.2-.4-.3-.4h-.5c-.6 0-1.5.4-2.7 1.2a57 57 0 0 0-4.7 3.7c-9 7.7-16.9 11.2-25.1 10-8.2-1.3-16.7-7.1-27-17.7a159.8 159.8 0 0 0-10.6-9.8 9.8 9.8 0 0 0-.9-.6l-.2-.1zm-140.2 43.5c-1 0-1.6.2-1.8.5-.2.4-.3 1 0 2.1.8 2.2 3.1 5.6 7.1 9.6a78.2 78.2 0 0 0 27.4 17.9c9.7 3.8 16.7 4.1 23.4 1.1 5.5-2.5 8.4-6.1 8.4-10.4a4 4 0 0 0-.4-2c-.3-.4-.6-.6-1-.7-.9-.1-2.5.4-4.6 1.8-2.7 2-6.4 2.3-11.3 1.2-5-1.2-11.3-3.8-19.5-8-8-4-17.5-9-21.3-11-2.9-1.4-5-2-6.4-2.1zm160.1 2.8c-.6-.1-1.7.2-3.1 1-1.4 1-3.2 2.3-5.2 4.1a58 58 0 0 1-12.7 8.7c-5.9 2.7-8.6 3.2-18.3 3.2-12.6 0-17.2-1.6-29.9-11.2a21 21 0 0 0-6.4-3.8c-.5 0-.5 0-.7.2-.2.3-.3 1-.3 2 0 2.2 1.5 5.7 3.8 9.2 2.4 3.4 5.7 7 9.2 9.5 8.1 6 14.3 7.8 26.2 7.4a34 34 0 0 0 18.3-4.1 51 51 0 0 0 13.1-9.8c3.8-3.8 6.5-8 7-10.7.4-2 .4-3.5.2-4.5a2 2 0 0 0-.5-1 1 1 0 0 0-.7-.2zm-2 21.4c-.5 0-.6 0-.8.4-.2.4-.3 1.2-.3 2.4 0 3.2 1.7 7.3 4.4 11 2.7 4 6.3 7.4 10 9.5a35 35 0 0 0 21.3 4.8c11-.9 17.8-3.4 23.8-12.6 1.5-2.5 2-4.8 1.4-6.7-.2-.7-.4-1.1-.8-1.4-.3-.2-.6-.3-1.2-.3-1 0-2.6.7-4.7 2.1-6 4.3-12 6.1-19.9 6.2-8.8 0-16.3-3-26.2-11-3.6-2.8-6-4.3-7-4.4zM290 605.5c-.6.3-.9.5-1 1a9 9 0 0 0 .1 3.3c1.8 11 13 25 24.4 30.2 8.5 4 20 4 28.5 0 7.7-3.5 16-11.1 19-17.3a25 25 0 0 0 2.2-6.3c.1-.7.1-1.3 0-1.6 0-.4-.2-.6-.4-.7-.3-.2-1.3-.2-2.8.5-1.6.7-3.6 2-6 4-10 8.2-18.6 12.1-27 11.4-8.6-.7-16.9-6-26.4-15.9a82.6 82.6 0 0 0-7.6-7.1 10 10 0 0 0-2-1.4c-.5-.2-.8-.2-1-.1z" style="fill:#309fdf"/><path d="M290 125.7a61.4 61.4 0 0 0-19 2.3c-19.9 5.7-33.5 15.8-36.5 52.2-3 36.6-18 45.5-20.3 46.7 14.7 26.7 38 24.5 30.1 59-2.4 11-17.6 23.5-32.8 46.5 34-27 56.4-48 99.6-100.5 0 0 39-47.6 25.1-77a52 52 0 0 0-46.1-29.2z" style="fill:#e9f2f1"/><path d="M288.5 120.8c-8.1 0-16.7 1.4-25.6 5.3-22.5 9.9-25 20.3-29.1 37a96.8 96.8 0 0 0-1.4 24.6 178 178 0 0 0-16.5-31.6s-19 19.8-36.5 18.6c-22.9-1.7-34 2-44.8 9.8-25.4 18.5-21.2 43.8-21.2 43.8s17.6-1.8 40.5 1c20.3 2.7 37.4 4.3 61.3 2.6 8.5-.6 15.8-10 19.3-19 4.5-4 2.9-22 4.8-24.5 3-3.4 8-4.7 10.6-5.2 3.7-.7 4.3 1.5 4.7 2.8a31 31 0 0 0 60.5-3.2c1-4.4 9-5 15.9-4.5 7 0 .9 15.9-1.7 22.3-5.4 13.2-24.9 39-24.9 39l124.3-85s-45.8 22-61.5 20c-19.7-2.3-25.7-34.8-43.2-44-9.9-5.1-22-9.6-35.5-9.8zm1.4 9.4a48.2 48.2 0 0 1 40.6 23.5c3.7 7.1 6.2 17-.3 20.2-7.6 3.7-14.7.7-15.5-2.8a31 31 0 0 0-30.2-24.1 30 30 0 0 0-30.8 27.4c-.4 5.2-9.1 7.7-12.7 3.7-2.7-3 1.7-16.8 3.7-22 6.2-16.2 27.8-25.7 45.2-26zm5.6 27.8a5.5 5.5 0 1 1 0 11 5.5 5.5 0 0 1 0-11zm-22 29a5.5 5.5 0 1 1 0 11 5.5 5.5 0 0 1 0-11zm40 523.4c-2.6-1.8-15.1 23.5-20 59-6.8 49-8.3 63.2-14.2 96-6 32.7-12.6 66.3-13.4 73.7-.6 4.8-1.7 19-.6 20.1 3.2 3.3 14.7-31.7 16.8-42 2-10.3 7.7-40.7 14.2-86.9 6.4-46.1 8.5-69.6 13.1-91.5 4.7-22 6.7-26.6 4.2-28.4zm66.3-27c-4.1-1.3-10.5 24.6-13.1 37.8-5.6 28.6-6.2 64-8.4 87a1099 1099 0 0 1-12 87.4c-2.7 15-8 29.4-9.8 44.6-1 9-5.2 26-.2 27.3 5.2 1.5 15.4-36.5 20-55.7 8.1-32.9 10.7-65.6 14.2-99.3 3.3-30.7 4.6-62.8 6.5-93.6.7-18.5 5.1-34.5 2.8-35.6z" style="fill:#0e254f"/></g></defs><rect width="1024" height="1024" ry="270" style="fill:#a7bcd9"/><use href="#a" transform="matrix(-1 0 0 1 1024 0)"/><use href="#a"/></svg>
