<?xml version="1.0" encoding="UTF-8" standalone="no"?>
<!DOCTYPE svg PUBLIC "-//W3C//DTD SVG 1.1//EN" "http://www.w3.org/Graphics/SVG/1.1/DTD/svg11.dtd">
<!-- Created with Vectornator (http://vectornator.io/) -->
<svg height="2.0in" stroke-miterlimit="10" style="fill-rule:nonzero;clip-rule:evenodd;stroke-linecap:round;stroke-linejoin:round;" version="1.1" viewBox="0 0 144 144" width="2.0in" xml:space="preserve" xmlns="http://www.w3.org/2000/svg" xmlns:xlink="http://www.w3.org/1999/xlink">
<defs/>
<clipPath id="ArtboardFrame">
<rect height="144" width="144" x="0" y="0"/>
</clipPath>
<g clip-path="url(#ArtboardFrame)" id="Layer-1">
<path d="M0 72C0 32.2552 32.2355 0.0355966 72 0.0355966C111.765 0.0355966 144 32.2552 144 72C144 111.745 111.765 143.964 72 143.964C32.2355 143.964 0 111.745 0 72Z" fill="none" opacity="1" stroke="#000000" stroke-linecap="butt" stroke-linejoin="round" stroke-width="0.596725"/>
</g>
<g id="Sketch" opacity="0.4" visibility="hidden">
<path d="M96.6317 21.707C97.6164 20.0659 98.946 13.9721 95.2758 16.4189C93.8082 17.3972 92.4273 21.2096 92.1572 22.7918C92.0183 23.6048 91.7406 25.184 92.5639 25.2324C93.2407 25.2722 93.966 25.4782 94.5978 25.2324C97.6529 24.0444 98.5854 21.4922 100.564 19.2663C100.688 19.127 100.482 19.6302 100.428 19.8087C100.346 20.0825 100.223 20.344 100.157 20.6223C100.041 21.1142 99.886 21.6085 99.886 22.1138C99.886 24.9092 100.355 25.7592 103.005 25.0968" fill="none" opacity="1" stroke="#000000" stroke-linecap="round" stroke-linejoin="round" stroke-width="0.596725"/>
<path d="M28.5492 44.2446C30.9085 41.8853 26.9505 36.2234 24.8882 39.4988C24.4006 40.2732 24.1353 41.1812 23.939 42.0751C23.725 43.0503 23.614 44.0611 23.6679 45.0581C23.7057 45.7588 23.794 46.5271 24.2102 47.092C25.1356 48.3479 26.8012 47.213 27.4645 46.5496C28.2447 45.7694 28.8068 44.7909 29.3628 43.8378C29.7605 43.156 29.9913 42.3896 30.3119 41.6683C30.353 41.5759 30.435 41.2968 30.4475 41.3971C30.678 43.2408 30.2397 45.109 30.0407 46.9564C29.3979 52.9258 27.8073 58.4265 25.7018 64.0412C25.4745 64.6471 25.3458 65.3463 24.8882 65.8039C24.7284 65.9637 24.5342 65.4813 24.4814 65.2615C24.2577 64.3292 24.1805 63.367 24.0746 62.4141C23.9996 61.7388 24.002 61.0567 23.939 60.3802C23.7098 57.9162 22.9076 55.3814 24.4814 53.0581C25.0693 52.1903 26.7331 52.4123 27.6001 52.3802C30.3 52.2802 33.5164 51.1813 36.1424 51.8378" fill="none" opacity="1" stroke="#000000" stroke-linecap="round" stroke-linejoin="round" stroke-width="0.596725"/>
<path d="M37.9052 46.4141C38.2964 45.2403 37.9647 48.3377 37.2272 48.5835C37.184 48.5979 37.4462 46.5913 37.9052 46.8208C38.2844 47.0105 37.1496 51.5666 38.1764 51.5666C39.1036 51.5666 40.7047 46.7161 40.8882 45.8717C41.0445 45.1527 41.2037 44.4323 41.295 43.7022C41.3118 43.5676 41.295 43.1598 41.295 43.2954C41.295 44.5722 41.2103 45.8205 41.1594 47.092C41.1341 47.7243 41.1261 48.3584 41.1594 48.9903C41.2515 50.7395 42.4325 49.7925 43.0577 48.8547C43.8568 47.6562 43.9358 43.4132 46.1764 43.9734C48.0969 44.4535 45.1873 53.0099 48.4815 52.5158C52.1996 51.958 56.7982 41.9144 57.295 38.6852C57.4948 37.3867 57.6048 36.0663 57.5662 34.753C57.5585 34.4896 57.4162 34.0158 57.1594 34.0751C55.5673 34.4425 54.9228 37.1353 54.7187 38.1429C54.2023 40.6926 53.8394 43.2783 53.634 45.8717C53.477 47.8542 53.1664 49.9049 53.634 51.8378C53.883 52.8671 54.6241 54.0995 55.6679 54.2785C56.7069 54.4566 57.5536 53.3061 58.3798 52.6514C59.9596 51.3994 61.3628 49.9395 62.8544 48.5835" fill="none" opacity="1" stroke="#000000" stroke-linecap="round" stroke-linejoin="round" stroke-width="0.596725"/>
<path d="M76.9561 48.5835C78.7878 49.4994 80.3934 47.2112 81.1595 46.0073C83.1167 42.9315 84.4537 39.8619 84.9561 36.2445C85.1862 34.5875 85.1325 32.9 85.0917 31.2276C85.0867 31.0255 84.9529 30.5325 84.8205 30.6852C83.2261 32.5249 82.8003 34.9267 82.2442 37.1937C81.3928 40.6649 80.647 44.1613 79.8035 47.6344C78.593 52.6189 76.8492 59.3847 75.3289 64.3124C74.8485 65.8696 74.7086 67.6412 73.7018 68.9226C73.1426 69.6342 73.7375 67.1102 73.8374 66.2107C73.8738 65.8837 74.0441 65.5842 74.1086 65.2615C74.6636 62.4868 75.3177 57.7597 76.2781 55.2276C76.6117 54.3483 77.2402 53.5876 77.9052 52.9225C78.1401 52.6877 81.4507 50.8798 81.5662 50.8886C82.9405 50.9943 83.892 51.8836 85.3629 51.431C86.9684 50.937 85.9944 49.6768 84.9561 49.2615C82.4171 48.2459 81.4639 54.724 82.651 55.3632C83.8494 56.0085 88.0747 51.3061 88.0747 50.753C88.0747 50.5901 87.8662 51.0094 87.8035 51.1598C87.6386 51.5556 87.5247 51.9709 87.3968 52.3802C87.154 53.1569 86.8778 54.6775 88.4815 54.1429C91.0328 53.2925 92.1609 50.8614 94.4476 49.6683C95.8666 48.928 95.668 51.2501 95.668 51.8378C95.668 52.0186 95.7488 52.5419 95.668 52.3802C95.1945 51.4333 95.9557 47.8997 93.6341 48.7191C92.2111 49.2213 90.7756 52.4134 91.8713 53.6005C93.298 55.1461 96.0501 52.2199 97.5663 53.7361C98.2382 54.408 97.8303 55.642 97.7019 56.5836C97.4021 58.7818 96.5656 60.8697 95.1256 62.5497C94.5784 63.188 93.7244 64.5948 93.0917 64.0412C93.0017 63.9625 92.906 62.2951 92.9561 62.0073C93.0913 61.2296 93.2438 60.4493 93.4985 59.7022C94.478 56.8289 97.3475 51.3569 101.092 51.1598C102.486 51.0864 102.201 53.1508 102.312 53.8717C102.334 54.013 102.347 54.3795 102.448 54.2785C104.466 52.2596 100.32 45.2625 99.4646 52.109C99.3971 52.649 99.3333 53.2617 99.6002 53.7361C100.676 55.6484 103.196 53.0184 103.804 52.3802C104.247 51.915 104.651 51.4114 105.024 50.8886C105.107 50.7723 105.261 50.3808 105.16 50.4819C103.811 51.8299 103.774 55.8553 103.261 57.5327C102.844 58.8996 102.416 60.2658 101.905 61.6005C101.5 62.6583 101.389 64.3614 100.278 64.5836C100.095 64.6201 100.135 64.2274 100.143 64.0412C100.181 63.0885 100.272 62.1366 100.414 61.1937C100.707 59.2414 101.259 56.8483 102.448 55.2276C104.042 53.054 107.498 52.5218 109.905 52.3802C110.1 52.3687 112.265 52.0823 111.804 51.1598C110.894 49.3401 108.187 51.6842 107.871 52.5158C107.356 53.8734 107.628 56.3168 108.143 57.5327C108.488 58.3494 109.842 58.3958 110.448 58.0751C112.745 56.8588 113.497 51.2271 110.448 50.2107C109.105 49.763 108.656 56.8912 111.397 55.77C113.167 55.0457 115.122 51.9141 115.871 50.753C117.856 47.6807 118.423 45.4453 118.854 41.6683C119.024 40.1857 119.031 38.6853 118.99 37.1937C118.986 37.0308 118.873 36.8385 118.719 36.7869C118.623 36.755 118.622 36.965 118.583 37.0581C118.261 37.8239 117.897 38.5749 117.634 39.3632C117.128 40.8828 116.692 42.4259 116.278 43.9734C115.652 46.3137 115.112 48.6762 114.515 51.0242C113.977 53.1433 113.702 55.3463 113.702 57.5327C113.702 57.7587 113.973 57.8943 114.109 58.0751" fill="none" opacity="1" stroke="#000000" stroke-linecap="round" stroke-linejoin="round" stroke-width="0.596725"/>
<path d="M111.532 44.2446C115.312 47.1843 119.679 46.7805 124.143 46.1429" fill="none" opacity="1" stroke="#000000" stroke-linecap="round" stroke-linejoin="round" stroke-width="0.596725"/>
<path d="M12.324 78.8419C12.324 76.6522 12.1884 84.3198 12.1884 85.8928C12.1884 86.2124 12.2494 85.2544 12.324 84.9436C12.521 84.1226 12.7281 83.3017 13.0019 82.5029C13.5657 80.8587 14.3074 79.3208 15.307 77.8928C15.4366 77.7076 15.724 77.2979 15.8494 77.486C17.0001 79.212 14.429 82.5164 14.9002 84.4012C14.9551 84.6205 15.3093 84.1769 15.4426 83.9945C16.1749 82.9924 16.8001 81.9164 17.4765 80.8758C17.9753 80.1085 18.4189 79.3029 18.9681 78.5707C19.1036 78.3899 19.4094 77.9618 19.5104 78.1639C20.4887 80.1206 16.5562 83.1253 18.0189 85.2148C18.3995 85.7586 19.4879 84.8204 21.002 83.0453C21.7352 82.1856 22.3579 81.2374 23.0359 80.3334C23.3669 79.8921 24.0858 78.9252 24.3918 79.3843C24.8376 80.053 25.0325 84.9436 26.2901 84.9436C28.8242 84.9436 28.3866 79.5146 26.4257 80.7402C25.3276 81.4265 24.3097 86.3506 25.2053 86.9775C26.0305 87.5551 28.3491 83.7854 29.1376 82.6385C29.3222 82.3699 29.4991 81.5538 29.6799 81.825C29.9658 82.2537 29.346 82.8063 29.2732 83.3165C29.0719 84.7251 29.1109 85.6527 29.2732 87.1131C29.2843 87.2136 29.3129 87.3523 29.4087 87.3843C30.9287 87.891 30.9995 87.2304 31.8494 85.6216C33.5496 82.4033 35.1762 79.1292 36.4596 75.7233C37.0397 74.1837 37.3936 72.5677 37.8155 70.9775C37.9815 70.352 38.7276 68.6749 38.2223 69.0792C36.8919 70.1435 36.8534 72.2055 36.324 73.825C35.5423 76.216 34.1403 80.4936 33.7477 83.0453C33.6172 83.8941 33.3637 84.8535 33.7477 85.6216C34.0317 86.1895 35.4698 84.5883 35.5104 84.5368C35.9923 83.9265 36.4526 83.2969 36.8664 82.6385C37.4481 81.713 37.9773 80.7547 38.4935 79.7911C38.656 79.4876 38.9003 78.4977 38.9003 78.8419C38.9003 80.4257 36.5753 84.5526 39.4427 84.9436C42.2344 85.3243 44.9556 82.5346 45.8155 80.0623C46.0536 79.3779 46.4045 77.8928 45.68 77.8928C44.6121 77.8928 43.1615 83.2953 44.1884 84.4012C46.4659 86.8539 51.1451 77.4973 52.5952 80.6046C53.4408 82.4166 51.5536 88.769 49.0698 87.1131C48.5473 86.7648 48.4689 86.0084 48.1206 85.486" fill="none" opacity="1" stroke="#000000" stroke-linecap="round" stroke-linejoin="round" stroke-width="0.596725"/>
<path d="M61.8721 80.8669C63.6778 80.265 64.7389 77.5903 65.3975 76.1211C65.5966 75.6769 65.8218 74.2929 65.9399 74.7652C66.4521 76.8144 64.8094 82.8889 64.4483 84.9347C64.3512 85.4853 63.6171 86.9257 64.0415 86.5618C65.5616 85.2589 65.9075 83.0186 66.889 81.2737C67.5845 80.0373 68.2969 78.8094 69.0585 77.6127C69.248 77.3148 69.394 76.7135 69.7365 76.7991C70.0465 76.8766 69.6678 77.4357 69.6009 77.7483C69.3964 78.7023 69.1647 79.6505 68.9229 80.5957C67.7064 85.3511 66.1702 89.9985 64.0415 94.4262C63.2785 96.0135 62.2715 98.5932 62.0076 97.2737C60.3949 89.2099 65.25 85.7791 71.3636 82.6296C72.0866 82.2571 76.9125 79.7022 77.3297 80.1889C77.7739 80.7071 77.4653 81.9874 77.4653 82.6296C77.4653 82.7652 77.4919 82.3558 77.4653 82.2228C77.4008 81.9002 77.3066 81.5829 77.1941 81.2737C76.9455 80.5899 75.6484 79.1482 74.7534 79.7822C73.0111 81.0163 70.6673 85.4425 72.5839 87.6466C75.9677 91.5379 82.1309 81.2725 78.4145 79.6466C76.6573 78.8778 74.8382 85.4373 77.3297 85.3415C79.9111 85.2422 82.4123 81.3249 84.1094 79.7822C84.3971 79.5206 84.6736 79.1592 85.0585 79.1042C85.4176 79.0529 84.9386 79.8732 84.9229 79.9177C84.6851 80.5916 84.4503 81.2671 84.245 81.9516C84.008 82.7416 83.34 85.1145 83.567 85.3415C84.254 86.0285 88.6364 80.3064 88.9907 80.0533C89.2052 79.9002 89.4579 79.4884 89.6687 79.6466C89.7008 79.6706 88.5115 84.3831 88.9907 85.3415C89.7162 86.7923 91.0892 85.574 91.7026 84.7991C92.4433 83.8635 93.1082 82.8683 93.8721 81.9516C94.2404 81.5097 94.6857 81.1381 95.0924 80.7313" fill="none" opacity="1" stroke="#000000" stroke-linecap="round" stroke-linejoin="round" stroke-width="0.596725"/>
<path d="M77.1086 106.505C80.2931 101.728 82.975 96.6145 84.8374 91.1825C84.9765 90.7769 85.2442 90.391 85.2442 89.9622C85.2442 89.5579 84.8593 90.6746 84.7018 91.0469C84.2601 92.0909 83.7528 93.1076 83.3459 94.1656C82.6223 96.047 81.9421 97.9458 81.312 99.8605C80.7666 101.518 80.3284 103.208 79.8205 104.877C79.4317 106.155 78.4645 108.575 78.4645 109.488C78.4645 109.804 79.1442 109.653 79.4137 109.488C80.3698 108.899 81.2405 108.154 81.9899 107.318C84.6209 104.384 87.1497 101.285 89.0408 97.8266C89.8952 96.2644 90.5602 94.6029 91.2103 92.9452C91.4665 92.292 91.7115 91.6118 91.7527 90.9113C91.7622 90.7486 91.4571 90.521 91.3459 90.6401C88.836 93.3293 86.9986 98.0949 86.0578 101.623C85.4556 103.881 84.9526 106.458 85.9222 106.64C88.0559 107.04 90.2331 102.845 91.2103 101.488C91.5327 101.04 91.7693 99.7416 92.1595 100.132C92.4725 100.445 90.5939 105.14 91.2103 105.962C92.5298 107.722 97.2273 101.894 98.6679 101.894C99.4037 101.894 98.2612 104.064 98.2612 104.064C98.2612 104.064 99.203 101.334 98.2612 101.216C96.9188 101.049 95.2717 105.598 96.634 106.233C98.5668 107.135 101.381 102.03 101.922 102.03C102.109 102.03 101.856 102.399 101.787 102.572C101.584 103.079 101.324 103.562 101.109 104.064C100.748 104.906 99.9869 106.505 100.159 107.454C100.192 107.632 100.555 107.56 100.702 107.454C101.402 106.948 101.99 106.302 102.6 105.691C103.228 105.063 104.661 103.373 105.448 102.708C105.602 102.577 105.869 102.275 105.99 102.437C106.418 103.008 104.947 105.793 104.905 106.505C104.891 106.748 104.935 107.217 105.176 107.183C107.411 106.863 108.974 102.799 111.143 104.606" fill="none" opacity="1" stroke="#000000" stroke-linecap="round" stroke-linejoin="round" stroke-width="0.596725"/>
<path d="M75.7527 100.538C78.4047 101.864 83.0441 100.035 85.5154 99.0469" fill="none" opacity="1" stroke="#000000" stroke-linecap="round" stroke-linejoin="round" stroke-width="0.596725"/>
<path d="M45.6778 126.617C46.1437 127.549 48.9362 125.93 49.3138 125.751C50.8768 125.011 52.4352 124.261 53.9887 123.5C58.2204 121.43 62.3243 119.321 61.4338 113.978C61.3292 113.35 60.7651 111.371 59.7024 111.207C58.0196 110.948 56.5973 114.932 56.4127 115.882C55.7768 119.152 56.1284 121.578 59.3561 122.981C63.2804 124.687 66.9361 120.928 67.8401 117.613C67.9132 117.345 68.4515 113.628 67.6669 114.151C67.1485 114.496 66.9015 120.714 66.8012 121.596C66.2093 126.805 65.2361 137.867 60.9144 141.68C59.5624 142.873 58.2221 139.155 57.4515 137.525C56.6224 135.771 55.9445 133.949 55.2007 132.157C54.3246 130.047 52.0458 125.929 53.9887 123.5C55.1041 122.106 58.7009 126.042 59.8755 126.444C63.6222 127.726 64.3771 127.032 68.1864 126.271" fill="none" opacity="1" stroke="#000000" stroke-linecap="round" stroke-linejoin="round" stroke-width="0.596725"/>
<path d="M76.4972 127.309C75.6517 127.028 75.5002 125.135 74.4195 125.405C72.5754 125.866 72.1445 128.962 71.9955 130.08C71.4632 134.072 73.7538 137.783 77.1898 133.889C78.3232 132.604 79.1622 131.076 79.9601 129.56C80.4034 128.718 81.1084 127.626 80.6526 126.79C79.8317 125.285 78.8724 124.487 76.8435 124.712C74.8525 124.934 71.9903 129.856 74.0732 130.772C79.2371 133.044 82.7759 128.724 86.8858 126.79C88.4303 126.063 88.3456 130.06 88.444 130.945C88.4568 131.06 88.3286 131.292 88.444 131.292C89.6305 131.292 87.6752 125.768 86.5395 125.059C84.7759 123.956 83.5311 126.463 83.0766 127.656C82.35 129.563 81.8294 133.708 83.4229 135.62C84.4307 136.83 86.3126 133.69 88.2709 130.426C90.6082 126.531 92.7009 122.476 94.504 118.306C95.2502 116.581 95.737 114.751 96.2355 112.939C96.374 112.435 96.9156 111.254 96.4086 111.38C95.6128 111.579 95.1921 112.539 94.8503 113.285C93.9073 115.343 93.1675 117.5 92.5995 119.691C91.338 124.557 91.0441 130.259 93.292 134.755C93.5863 135.343 94.5618 135.101 95.1966 135.274" fill="none" opacity="1" stroke="#000000" stroke-linecap="round" stroke-linejoin="round" stroke-width="0.596725"/>
<path d="M41.7164 22.5206C41.5758 22.9425 41.0786 23.7575 41.852 23.8765C42.2987 23.9452 42.8266 24.1192 43.2079 23.8765C44.7866 22.8719 45.5891 20.978 46.5978 19.4019C48.9171 15.7779 50.1981 11.9264 50.9368 7.74089C51.094 6.84957 51.8484 5.49468 51.0723 5.02902C50.0536 4.41775 49.1395 6.27655 48.9028 6.92733C48.5167 7.98924 48.2174 9.08282 47.9537 10.1816C47.0568 13.9186 46.3455 17.9929 46.4622 21.8426C46.4662 21.9771 46.4329 25.2874 47.8181 24.8257C49.6347 24.2201 49.7765 19.1761 49.852 19.1307C50.4723 18.7586 53.1472 19.8168 54.4622 19.1307C55.3186 18.6839 58.6817 15.6134 56.4961 14.5206C55.816 14.1805 54.8261 15.1572 54.5978 15.4697C54.0252 16.2532 53.5714 17.1332 53.2418 18.046C52.6049 19.8098 52.1535 23.7407 55.0046 23.8765C57.7026 24.005 59.0414 17.9259 60.4283 17.2324C60.8346 17.0293 60.3764 18.1419 60.2927 18.5884C60.2159 18.9979 60.0983 19.3991 60.0215 19.8087C59.8789 20.569 59.4757 23.7389 60.4283 24.2833C61.43 24.8557 63.6661 18.9951 64.6317 18.9951C64.7746 18.9951 64.7515 19.2599 64.7673 19.4019C64.8222 19.8962 64.442 23.4233 64.7673 23.4697C65.8555 23.6252 68.7265 18.4842 69.513 19.4019C69.855 19.8009 69.1579 25.2417 70.5978 24.4189C71.686 23.797 74.693 19.4097 75.6148 19.6731C76.9765 20.0622 76.5416 23.193 77.6487 23.4697C77.7873 23.5044 77.8189 23.2016 77.7842 23.0629C77.6202 22.4067 75.2627 20.1769 74.6656 20.8934C74.144 21.5194 75.1377 22.4587 75.4792 23.1985C76.3918 25.176 77.4448 27.6106 77.2419 29.8426C77.1624 30.7166 76.9856 31.5892 76.6995 32.4189C76.4967 33.0071 74.6407 35.8453 73.7164 34.1816C71.2487 29.7397 79.9927 24.1669 82.6656 22.385" fill="none" opacity="1" stroke="#000000" stroke-linecap="round" stroke-linejoin="round" stroke-width="0.596725"/>
<path d="M64.19 12.6674C64.854 12.4018 67.159 8.88642 66.1503 7.87768C65.1025 6.82992 64.4725 8.79336 64.3843 8.79336C64.0396 8.79336 63.6112 7.39973 63.2684 7.43609C61.4794 7.62583 63.9949 12.7454 64.19 12.6674Z" fill="none" opacity="1" stroke="#000000" stroke-linecap="round" stroke-linejoin="round" stroke-width="0.596725"/>
<path d="M40.031 40.4589C38.6492 40.0486 36.7685 35.6587 38.8537 35.0629C41.0973 34.4219 40.5408 36.6936 40.7505 36.7635C40.7962 36.7787 41.9944 34.7371 43.1051 35.8478C43.6775 36.4202 40.3771 40.5616 40.031 40.4589Z" fill="none" opacity="1" stroke="#000000" stroke-linecap="round" stroke-linejoin="round" stroke-width="0.596725"/>
<path d="M105.114 84.0476C104.904 84.4669 104.891 87.2105 105.114 87.5819C105.236 87.785 105.382 87.1886 105.48 86.9726C105.749 86.3741 105.964 85.7525 106.211 85.1444C106.711 83.9139 106.856 82.4274 107.795 81.4882C108.095 81.1888 107.93 82.2313 107.795 82.9507C107.79 82.9796 107.163 85.6776 107.43 85.7538C108.551 86.0743 110.5 80.757 111.208 80.757C111.452 80.757 111.246 81.2475 111.208 81.4882C111.012 82.7265 110.037 84.607 110.355 85.8757C110.558 86.6872 111.981 85.2716 112.548 84.657C113.525 83.5986 114.266 82.1788 115.108 81.0007C115.157 80.9323 115.724 80.2991 115.839 80.3914C115.979 80.5034 117.738 83.1018 117.545 81.3664C117.522 81.1605 117.548 80.9227 117.423 80.757C116.993 80.1837 115.956 80.2992 115.473 80.6351C113.209 82.2104 111.768 86.5881 114.986 87.8257C117.836 88.9217 120.378 82.9801 119.13 81.732C116.935 79.5373 114.041 82.3472 116.083 84.5351C118.663 87.2995 121.051 80.5108 121.689 79.6601C121.914 79.36 123.796 81.1859 123.883 81.4882C124.217 82.6586 123.053 85.3882 124.979 85.3882C126.423 85.3882 130.026 78.5734 129.367 77.832C128.693 77.0736 127.055 79.286 126.32 81.0007C125.912 81.9527 125.322 83.0875 125.711 84.0476C126.367 85.6699 128.838 86.0946 130.586 85.9976" fill="none" opacity="1" stroke="#000000" stroke-linecap="round" stroke-linejoin="round" stroke-width="0.596725"/>
<path d="M18.7055 101.476C18.4584 101.228 18.0961 100.622 18.0961 100.622C18.0961 100.622 18.4826 102.483 18.5836 103.426C18.6471 104.018 19.1933 107.325 18.4618 107.813C18.0839 108.065 18.218 106.927 18.218 106.472C18.218 105.782 18.1999 105.091 18.218 104.401C18.2655 102.596 18.0683 99.5708 19.9243 98.4287C20.5407 98.0494 21.1061 99.4413 21.143 99.5256C21.6219 100.62 21.5664 101.884 20.7774 102.816C20.4848 103.162 19.1278 103.811 18.8274 103.06C18.5652 102.404 22.1746 103.016 22.6055 102.938C24.0466 102.676 25.3585 99.201 26.1398 99.6474C26.3611 99.7739 26.7933 100.744 27.1148 100.744C27.1867 100.744 26.2216 99.2991 25.1648 99.5256C24.2331 99.7252 23.9142 100.757 23.8242 101.597C23.7463 102.324 23.6598 103.079 23.8242 103.791C23.9156 104.187 24.2682 104.479 24.5555 104.766C26.1509 106.362 28.5567 100.62 27.6023 100.013C25.7549 98.8374 23.8522 101.578 24.9211 103.182C26.3562 105.334 29.8617 100.885 30.0398 99.2818C30.0983 98.7554 29.3542 100.12 29.1867 100.622C28.9494 101.334 28.2643 104.101 29.9179 103.791C30.6759 103.649 31.8975 101.9 31.5023 101.11C31.2669 100.639 30.759 104.725 32.1116 103.913C32.7693 103.518 34.6503 100.366 33.4523 99.6474C32.7508 99.2266 33.0813 100.764 33.5741 100.988C34.5146 101.416 35.5542 101.446 36.0116 100.379C36.542 99.1411 36.0817 98.4337 36.0116 98.5506C35.4947 99.4121 34.5144 103.158 36.2553 103.426C37.5219 103.62 38.571 98.5701 38.571 97.8193C38.571 97.6975 38.571 97.4537 38.571 97.4537C38.571 97.4537 38.7511 98.2944 39.0584 98.5506C39.5561 98.9653 40.7789 99.1375 40.8866 99.8912C40.9303 100.198 40.4466 103.632 41.4959 103.304C44.643 102.32 46.9781 94.7373 47.4677 91.6038C47.537 91.1604 47.9069 90.5804 47.5896 90.2631C47.3327 90.0062 47.221 90.8948 47.1021 91.2381C46.8539 91.9553 46.6946 92.7003 46.4928 93.4319C46.3696 93.8784 46.2276 94.3203 46.1271 94.7725C45.4461 97.8371 44.8924 100.931 44.4209 104.035C44.2491 105.166 44.1588 106.308 44.0553 107.447C44.0295 107.731 43.9433 108.562 44.0553 108.3C44.8092 106.541 43.8643 104.295 44.6646 102.694C44.8579 102.308 47.177 102.268 47.5896 101.597C47.673 101.462 48.6943 99.1029 49.0521 99.2818C49.3405 99.426 48.0712 104.439 48.3209 105.376C48.3742 105.576 48.7985 105.657 48.9302 105.497C50.2028 103.952 49.9067 101.23 51.2458 99.8912C51.3643 99.7727 51.3677 100.211 51.3677 100.379C51.3677 100.747 51.2944 101.111 51.2458 101.476C51.1408 102.263 50.7278 106.064 52.3427 105.741C55.0314 105.203 57.5838 96.4274 58.0708 94.0412C58.3608 92.62 58.5822 90.8888 57.9489 90.9944C56.907 91.168 57.0291 92.9063 56.7302 93.9194C55.544 97.9392 54.4612 102.487 55.3895 106.716C55.5772 107.571 55.6738 108.616 56.3645 109.154C56.7385 109.444 57.177 108.666 57.5833 108.422" fill="none" opacity="1" stroke="#000000" stroke-linecap="round" stroke-linejoin="round" stroke-width="0.596725"/>
</g>
<g id="Layer-2">
<g opacity="1">
<path d="M38.9322 28.18C41.955 27.8172 45.129 20.512 47.3559 15.7258C49.5827 10.9396 49.3308 9.03518 47.8395 9.03518C45.3691 9.03518 41.8589 28.1877 44.5345 28.5024C47.2753 28.8249 46.9931 22.7388 46.9931 22.7388C46.9931 22.7388 46.9629 24.9254 48.7262 24.1495C50.4896 23.3736 54.0465 22.8194 54.1674 20.3609C54.2883 17.9023 53.4822 18.1844 51.8297 19.4741C50.1772 20.7639 48.7665 28.7443 52.2328 27.9382C55.699 27.1321 59.0443 19.716 59.0443 19.716C59.0443 19.716 56.9484 27.4142 58.1576 28.18C59.3667 28.9458 61.0494 20.9856 62.1074 20.9251C63.1654 20.8647 61.9865 25.9632 61.7044 27.2933C61.4223 28.6233 64.4854 20.7639 65.5334 21.0863C66.5813 21.4088 66.0976 26.729 66.8634 27.656C67.6292 28.583 73.7599 26.8319 74.6063 25.6631C75.0438 25.0589 75.6616 23.7291 75.161 22.4736C74.6932 21.3004 74.1903 20.0236 72.3875 20.4396C70.7601 20.8152 69.2817 23.0613 69.5638 24.5123C69.846 25.9632 73.1913 29.5907 73.3928 31.1626C73.5943 32.7344 71.5791 36.9665 70.2087 37.3292C68.8384 37.6919 68.4051 34.1149 70.1684 31.485C71.9318 28.8551 75.1465 26.9977 77.2621 26.8096" fill="none" opacity="1" stroke="#000000" stroke-linecap="round" stroke-linejoin="round" stroke-width="1.18"/>
<path d="M60.2813 16.4346C59.5658 15.3139 58.9895 10.0946 60.711 9.85996C62.4326 9.62531 61.3575 11.5652 61.973 12.8167C63.1806 11.7684 62.9463 10.9133 64.4821 11.2439C66.0178 11.5745 61.6001 15.5754 60.2813 16.4346Z" fill="none" opacity="1" stroke="#000000" stroke-linecap="butt" stroke-linejoin="round" stroke-width="1.18"/>
</g>
<path d="M87.8785 27.7012C89.0905 27.0346 89.7186 26.6988 91.0902 24.2168C92.4618 21.7348 93.076 19.2023 97.3319 19.7477C95.6514 18.1419 88.9693 23.0958 92.8114 27.1699C94.5466 29.0098 96.6959 27.8102 97.1803 25.0349C97.6246 22.4892 97.4425 18.7708 97.8487 18.6771C98.6668 22.0706 97.1287 27.6976 101.629 27.8883" fill="none" opacity="1" stroke="#000000" stroke-linecap="round" stroke-linejoin="round" stroke-width="1.18"/>
<path d="M20.7382 54.4532C23.4214 53.9165 23.0917 46.5173 25.9283 44.524C28.7649 42.5308 30.5505 44.985 30.1671 47.1316C29.993 45.6987 29.7714 44.5069 29.1363 44.2223C24.4123 42.1055 23.3748 50.7019 25.253 52.1204C27.3291 53.6884 30.4999 46.0788 31.4965 45.6955C31.611 49.1003 27.7446 68.8396 26.487 68.8714C23.8655 68.9375 22.7268 63.2263 23.1138 60.745C23.2384 59.9461 24.3945 57.2771 26.6845 55.6551C29.3951 53.7352 33.4201 51.8789 34.943 52.5512C37.2264 53.5593 37.6049 45.4547 38.3241 44.5144C39.0432 43.574 37.8727 52.9011 39.0981 52.8166C40.7022 52.706 43.3751 45.621 44.7027 44.736C45.6431 48.6635 46.4176 45.5657 47.026 44.6806C47.9664 46.4508 44.3862 52.4937 47.6499 52.4937C50.9136 52.4937 55.8731 43.625 56.8141 40.9258C57.7551 38.2266 57.7945 34.4589 57.4896 34.2139C56.8189 33.6751 55.3314 35.7717 54.3796 38.3848C53.4277 40.998 53.2607 53.4292 55.1968 54.1483C57.1329 54.8675 61.2263 50.3315 62.388 49.5017" fill="none" opacity="1" stroke="#d426c9" stroke-linecap="round" stroke-linejoin="round" stroke-width="1.40207"/>
<path d="M39.6144 40.7267C39.6144 40.7267 43.1273 37.9252 43.1023 36.3455C43.0772 34.7658 41.4724 35.8691 40.9208 36.4207C40.3942 35.2673 39.2407 34.4398 38.2378 35.6685C37.2348 36.8972 39.6144 40.7267 39.6144 40.7267Z" fill="none" opacity="1" stroke="#d426c9" stroke-linecap="round" stroke-linejoin="round" stroke-width="1.40207"/>
<path d="M75.7863 48.7637C75.7863 48.7637 78.4127 48.4656 81.3774 45.5609C81.3863 45.5522 81.3952 45.5434 81.4041 45.5347C83.2069 43.76 85.0495 41.8246 85.564 40.0373C86.9278 35.3 87.2149 30.8499 85.9229 30.8499C84.6309 30.8499 84.0567 34.7976 84.0567 34.7976C84.0567 34.7976 81.8025 49.7241 79.3474 59.1621C78.1801 63.6494 76.9673 66.8961 75.9299 66.7079C72.9447 66.1666 75.2061 56.9151 77.1963 54.1667C78.5748 52.2628 82.5064 48.3562 84.5254 47.188C86.7506 45.9006 88.7692 45.9324 89.8818 45.9641C89.103 46.1072 85.2131 46.106 84.748 48.2529C84.2828 50.3998 84.1682 51.6316 85.4921 52.383C86.0601 52.7054 87.351 52.9132 88.9758 50.8278C90.4153 48.9802 90.2883 45.4737 90.5334 45.535C90.6766 47.3598 88.7996 51.0488 90.9785 51.3841C92.2182 51.5748 93.0732 50.2429 94.5707 48.1288C95.4499 46.8876 98.1704 45.9538 99.3082 47.4364C97.6877 45.3677 93.1607 48.9092 93.769 51.7001C94.3773 54.491 99.2717 48.0924 99.2717 48.0924C99.2717 50.275 99.2387 55.3951 97.4496 60.1182C95.6606 64.8413 95.3667 65.9733 93.1307 65.4166C91.6437 65.0463 93.2329 60.1673 93.8054 58.8792C94.3779 57.5911 99.3714 49.8211 101.75 48.1652C104.474 46.2689 105.522 47.7614 106.023 48.2981C104.519 46.744 103.008 47.5819 101.64 48.7848C100.747 49.571 100.634 50.7666 101.167 51.8823C101.818 53.2453 105.782 51.2805 106.351 48.6602C105.778 51.0933 105.687 65.8113 103.064 65.4288C101.511 65.2023 101.949 59.9157 102.087 58.9784C102.211 58.1366 102.696 56.037 103.599 54.9565C104.368 54.0369 108.653 47.6015 109.248 46.8583C109.839 46.1189 111.201 44.6925 112.633 45.1234C114.205 45.5965 114.533 48.9568 114.042 50.5949C113.55 52.2331 110.503 52.9934 109.684 52.207C108.865 51.4207 109.062 47.6135 109.52 47.1548C110.471 48.3343 114.238 48.7274 115.32 47.1875C116.401 45.6476 121.61 32.1818 120.693 32.149C119.71 36.2445 115.811 42.3713 116.696 49.1533C117.58 55.9354 120.431 56.8528 122.298 57.6064" fill="none" opacity="1" stroke="#d426c9" stroke-linecap="round" stroke-linejoin="round" stroke-width="1.40207"/>
<path d="M111.65 37.8826C114.435 39.6846 121.512 42.4696 126.164 40.5365" fill="none" opacity="1" stroke="#d426c9" stroke-linecap="round" stroke-linejoin="round" stroke-width="1.40207"/>
<path d="M5.02555 79.797C6.44223 81.1821 8.76283 71.182 9.80766 70.5219C10.8525 69.8618 8.76283 79.4669 9.88803 79.797C10.1291 78.1939 10.6369 69.5035 12.8216 69.9561C14.4065 70.2845 12.3788 77.6296 12.902 79.797C13.8304 77.7756 13.6792 69.9006 15.9871 70.0874C18.3926 70.282 14.5494 79.7498 16.2774 79.797C18.0054 79.8441 23.2967 71.1321 25.9527 71.4242C23.1926 71.0233 18.601 79.8974 22.9035 79.7203C25.9001 79.597 26.1796 71.554 26.6361 71.1158C27.0096 74.6702 24.3301 79.1982 26.4466 79.4904C28.5631 79.7825 33.9581 67.9508 35.0371 65.0781C36.1161 62.2054 36.4481 59.138 35.9501 59.3814C35.4521 59.6249 31.4967 73.3516 31.3029 75.8617C31.0149 79.5915 30.6112 79.917 31.1051 80.0167C31.4329 80.0828 30.9035 70.0752 34.5391 72.0895C37.7445 73.8655 32.0906 75.2056 32.6301 76.3255C33.8336 78.2244 33.189 80.2044 36.3424 79.4904C38.7079 78.9548 40.9074 77.7862 41.6959 75.3517C42.4844 72.9172 41.0734 71.2131 40.2019 71.1157C39.3304 71.0183 38.2099 73.9884 38.3759 75.2056C38.5419 76.4229 40.2246 79.6851 41.9261 79.393C43.6276 79.1008 47.3815 73.0146 49.5395 71.5539C50.7015 73.7449 50.66 75.4004 49.996 77.7375C49.332 80.0746 44.85 79.8799 44.1029 77.9323C45.4725 79.1008 48.0524 80.7699 53.399 78.2244" fill="none" opacity="1" stroke="#000000" stroke-linecap="round" stroke-linejoin="round" stroke-width="1.18243"/>
<path d="M57.6015 78.6826C59.3999 76.6768 62.9274 72.4576 63.4116 69.4142C62.9274 76.0543 60.2299 79.3743 62.7891 79.1668C65.3483 78.9593 67.7691 69.9676 68.9449 70.3826C68.1841 73.7717 65.9016 85.1151 64.3107 87.3285C62.7199 89.5418 62.1666 90.3027 60.9216 90.3718C59.6766 90.441 61.2674 83.7318 62.3741 82.556C63.4807 81.3801 72.3442 70.7735 75.2492 71.8802C78.1542 72.9868 77.1167 74.716 76.2867 76.9985C75.4567 79.281 74.4883 79.6269 72.275 79.6269C70.0617 79.6269 69.5775 75.131 70.615 73.8168C72.275 74.301 77.6965 77.9374 80.3928 75.427C81.6948 74.2148 81.7802 73.1152 83.0117 71.2791C82.5276 73.7 80.1278 79.373 82.8253 79.5113C85.5229 79.6496 86.1852 73.1621 87.2227 71.9171C87.1536 75.2372 85.2684 78.9593 87.4125 79.0284C89.5567 79.0976 91.1475 77.2993 92.8076 76.2618" fill="none" opacity="1" stroke="#000000" stroke-linecap="round" stroke-linejoin="round" stroke-width="1.18243"/>
<path d="M95.7003 76.2441C96.9912 77.7332 95.313 80.4986 97.9595 79.7895C100.606 79.0804 99.8314 71.7768 101.574 71.9895C103.317 72.2022 100.869 77.6593 101.932 79.3609C102.125 76.8081 102.478 71.6349 104.479 71.8477C106.48 72.0604 104.675 77.4466 105.337 79.2555C105.531 76.5609 106.545 71.564 108.352 71.8477C110.159 72.1313 107.357 79.4298 108.455 79.5716C109.142 79.0595 109.752 77.6927 110.436 76.2222C111.552 73.8239 112.865 71.1497 115.026 71.4574C118.511 71.9538 117.951 73.6704 117.904 75.5145C117.854 77.4222 116.455 79.8878 115.026 79.8878C112.148 79.8878 111.176 72.3472 112.532 72.9854C114.594 76.4629 120.08 74.7455 120.808 71.7061C120.808 71.7061 121.128 74.9103 124.308 71.0446C125.736 74.6411 122.963 78.676 125.607 79.3643C129.343 80.3369 132.437 73.6704 133.204 72.4585C133.971 71.2467 132.772 68.7703 131.094 69.8241C129.415 70.8778 128.504 72.5639 128.599 73.9338C128.695 75.3038 130.278 80.5727 134.403 78.6759C138.528 76.7791 138 74.8296 138 74.8296" fill="none" opacity="1" stroke="#000000" stroke-linecap="round" stroke-linejoin="round" stroke-width="1.18"/>
<path d="M12.6217 102.417C15.4405 101.821 15.558 94.8951 18.3135 92.4968C21.3492 89.4611 24.566 91.155 24.617 93.6044C24.6681 96.0537 23.9995 102.8 21.295 102.851C18.5904 102.902 18.1874 94.8801 18.4936 93.043C16.9627 97.9418 18.881 113.635 19.2893 113.584C19.2893 110.369 16.9995 92.994 18.5303 94.0146C18.0967 96.454 18.2051 102.471 21.0781 102.905C23.4042 103.256 26.0688 98.2696 27.2578 95.0988C28.071 92.9305 27.4236 92.4817 31.4038 92.0735C35.3841 91.6653 34.7207 94.778 34.8738 96.0027C35.0269 97.2274 31.6077 102.688 29.2093 102.688C26.811 102.688 26.8113 98.7072 27.4236 94.778C30.6894 97.5336 32.8484 96.3617 35.6654 95.7315C38.1938 95.1659 37.5737 94.6931 39.3001 93.022C38.6462 95.9086 38.052 103.449 40.0931 103.397C42.1343 103.346 41.8333 96.4121 43.6176 92.7113C43.3114 95.5179 41.4055 102.892 44.3141 102.739C47.2227 102.585 46.2127 92.66 48.0626 92.4486C49.1197 94.827 49.014 96.1484 50.5468 96.5184C52.0795 96.8884 54.7751 95.3027 54.828 93.7699C54.8808 92.2372 51.845 90.902 50.8408 92.9105C49.8366 94.919 47.4284 103.337 51.551 103.019C55.6736 102.702 57.8485 92.0288 59.3813 91.9231C60.2798 94.9358 61.4571 94.0655 62.9899 92.3741C63.9941 95.2811 59.4613 102.712 62.9497 102.289C66.4381 101.866 73.0408 84.6183 71.4023 84.2483C69.7638 83.8783 65.5046 94.9856 65.2403 96.7826C64.976 98.5797 62.1875 111.127 63.1389 113.769C64.0903 116.412 65.9503 101.624 65.1575 100.144C68.1702 101.096 68.0944 102.121 70.05 101.117C72.0056 100.112 71.53 95.937 72.8513 93.6114C72.8347 95.2271 70.57 103.166 74.5134 103.396C78.4969 103.627 78.3904 95.4546 78.866 93.8958C78.3434 100.375 78.2036 103.061 80.3982 103.009C82.5928 102.956 88.4638 89.5039 87.5755 85.4282C86.6872 81.3526 79.836 103.026 83.3385 103.026C85.0115 103.026 86.535 100.82 88.3135 98.8873" fill="none" opacity="1" stroke="#000000" stroke-linecap="round" stroke-linejoin="round" stroke-width="1.18243"/>
<path d="M92.5702 102.7C95.5753 102.542 98.8175 88.3863 101.348 82.6926C100.241 88.2282 94.8093 103.698 100.187 103.302C105.564 102.907 112.577 85.8558 110.759 85.1441C108.94 84.4323 105.697 90.8378 105.302 93.6847C104.907 96.5315 104.137 101.096 104.553 103.385C104.948 100.301 107.279 95.2663 109.81 96.5315C112.34 97.7968 109.254 104.111 111.524 103.354C113.708 102.626 116.153 96.7736 119.478 96.724C119.478 96.724 113.042 99.8805 114.856 101.771C116.669 103.662 119.585 103.957 119.932 101.217C120.28 98.478 120.097 98.5193 120.185 96.7744C120.864 99.9768 119.91 103.16 122.726 102.774C125.543 102.388 123.652 98.1443 125.581 96.9097C127.51 95.6751 124.887 103.353 126.044 103.237C126.546 100.536 126.083 96.9483 128.244 96.8325C130.404 96.7168 129.324 102.851 130.52 102.697C131.716 102.543 132.565 101.192 133.452 100.305" fill="none" opacity="1" stroke="#000000" stroke-linecap="round" stroke-linejoin="round" stroke-width="1.18243"/>
<path d="M93.8763 86.7033C96.618 87.33 99.908 90.0717 103.433 88.505" fill="none" opacity="1" stroke="#000000" stroke-linecap="round" stroke-linejoin="round" stroke-width="1.18243"/>
<path d="M44.976 135.168C47.6551 134.589 58.1542 118.949 59.2403 114.677C60.3264 110.405 55.3303 109.102 53.6649 112.36C51.9995 115.618 54.3166 121.628 58.9506 121.99C63.5847 122.352 68.2912 119.601 70.1014 117.429C71.9116 115.256 70.8979 112.143 68.5084 112.143C66.119 112.143 67.7843 135.096 64.6708 136.037C61.5573 136.979 53.3029 132.055 53.5201 126.697C58.3714 130.1 65.1053 135.313 69.5945 131.476C74.0838 127.638 73.5769 123.728 78.2834 124.669C82.9899 125.611 78.3558 135.386 74.5182 135.458C70.6806 135.53 71.1875 129.303 73.2149 128.797C74.3734 131.114 86.4654 125.9 91.4615 124.742C85.7414 125.249 79.8764 135.096 84.2932 135.386C88.7101 135.675 98.5575 113.519 96.7473 111.708C94.9371 109.898 87.1171 136.544 95.0095 135.024C102.902 133.503 101.816 129.521 101.816 129.521" fill="none" opacity="1" stroke="#000000" stroke-linecap="round" stroke-linejoin="round" stroke-width="2"/>
<path d="M16.7024 31.2459C16.7172 34.6674 22.7773 39.6267 28.5379 36.9938C29.2863 31.3361 29.5125 27.2084 27.4399 25.5812C25.3672 23.9539 23.2177 27.5565 23.864 30.668C19.9512 27.8871 16.6939 29.2796 16.7024 31.2459Z" fill="#d42679" fill-rule="nonzero" opacity="1" stroke="#68133c" stroke-linecap="butt" stroke-linejoin="round" stroke-width="2"/>
<path d="M107.092 19.5754C104.538 21.852 104.834 29.6771 110.622 32.2507C115.357 29.0655 118.6 26.502 118.447 23.8713C118.294 21.2406 114.171 22.0152 112.267 24.5597C111.761 19.7862 108.56 18.2672 107.092 19.5754Z" fill="#d42679" fill-rule="nonzero" opacity="1" stroke="#68133c" stroke-linecap="butt" stroke-linejoin="round" stroke-width="2"/>
<path d="M110.459 109.962C107.904 112.239 108.2 120.064 113.988 122.637C118.723 119.452 121.966 116.889 121.813 114.258C121.66 111.627 117.537 112.402 115.634 114.946C115.127 110.173 111.926 108.654 110.459 109.962Z" fill="#d42679" fill-rule="nonzero" opacity="1" stroke="#68133c" stroke-linecap="butt" stroke-linejoin="round" stroke-width="2"/>
<path d="M30.4646 116.28C30.0737 119.679 35.5031 125.322 41.5352 123.39C42.9491 117.861 43.6631 113.79 41.798 111.928C39.9329 110.067 37.3714 113.389 37.6442 116.555C34.0888 113.33 30.6893 114.326 30.4646 116.28Z" fill="#d42679" fill-rule="nonzero" opacity="1" stroke="#68133c" stroke-linecap="butt" stroke-linejoin="round" stroke-width="2"/>
</g>
</svg>
