<?xml version="1.0" encoding="UTF-8" standalone="no"?>
<!-- Created with Vectornator (http://vectornator.io/) -->

<svg
   height="2.0in"
   stroke-miterlimit="10"
   style="fill-rule:nonzero;clip-rule:evenodd;stroke-linecap:round;stroke-linejoin:round;"
   version="1.1"
   viewBox="0 0 144 144"
   width="2.0in"
   xml:space="preserve"
   id="svg378"
   sodipodi:docname="trams rights.svg"
   inkscape:version="1.3 (0e150ed6c4, 2023-07-21)"
   xmlns:inkscape="http://www.inkscape.org/namespaces/inkscape"
   xmlns:sodipodi="http://sodipodi.sourceforge.net/DTD/sodipodi-0.dtd"
   xmlns="http://www.w3.org/2000/svg"
   xmlns:svg="http://www.w3.org/2000/svg"><sodipodi:namedview
   id="namedview380"
   pagecolor="#ffffff"
   bordercolor="#000000"
   borderopacity="0.25"
   inkscape:showpageshadow="2"
   inkscape:pageopacity="0.0"
   inkscape:pagecheckerboard="0"
   inkscape:deskcolor="#d1d1d1"
   inkscape:document-units="in"
   showgrid="false"
   inkscape:zoom="9.6576488"
   inkscape:cx="69.582153"
   inkscape:cy="57.156769"
   inkscape:window-width="2560"
   inkscape:window-height="1412"
   inkscape:window-x="0"
   inkscape:window-y="0"
   inkscape:window-maximized="1"
   inkscape:current-layer="Layer-1" />&#10;<defs
   id="defs38">&#10;<radialGradient
   cx="60.4579"
   cy="44.2097"
   gradientTransform="matrix(1.24712 0 0 5.10728 -8.86707 36.057)"
   gradientUnits="userSpaceOnUse"
   id="RadialGradient"
   r="131.415">&#10;<stop
   offset="0"
   stop-color="#00f8ff"
   id="stop3" />&#10;<stop
   offset="1"
   stop-color="#063056"
   id="stop5" />&#10;</radialGradient>&#10;<linearGradient
   gradientTransform="matrix(1 0 0 1 0 0)"
   gradientUnits="userSpaceOnUse"
   id="LinearGradient"
   x1="-29.9227"
   x2="169.899"
   y1="111.906"
   y2="111.906">&#10;<stop
   offset="0"
   stop-color="#0bbc02"
   id="stop8" />&#10;<stop
   offset="1"
   stop-color="#10701f"
   id="stop10" />&#10;</linearGradient>&#10;<radialGradient
   cx="123.984"
   cy="39.7173"
   gradientTransform="matrix(-1 -1.22465e-16 0 1 259.744 -4.27308)"
   gradientUnits="userSpaceOnUse"
   id="RadialGradient_2"
   r="19.0436">&#10;<stop
   offset="0"
   stop-color="#378427"
   id="stop13" />&#10;<stop
   offset="1"
   stop-color="#439531"
   id="stop15" />&#10;</radialGradient>&#10;<linearGradient
   gradientTransform="matrix(1 0 0 1 0 0)"
   gradientUnits="userSpaceOnUse"
   id="LinearGradient_2"
   x1="235.629"
   x2="236.621"
   y1="-19.1219"
   y2="-19.1219">&#10;<stop
   offset="0"
   stop-color="#0bbc02"
   id="stop18" />&#10;<stop
   offset="1"
   stop-color="#10701f"
   id="stop20" />&#10;</linearGradient>&#10;<radialGradient
   cx="123.984"
   cy="39.7173"
   gradientTransform="matrix(1 0 0 1 -46.684 -13.4513)"
   gradientUnits="userSpaceOnUse"
   id="RadialGradient_3"
   r="19.0436">&#10;<stop
   offset="0"
   stop-color="#378427"
   id="stop23" />&#10;<stop
   offset="1"
   stop-color="#439531"
   id="stop25" />&#10;</radialGradient>&#10;<radialGradient
   cx="123.984"
   cy="39.7173"
   gradientTransform="matrix(1 0 0 1 -5.08731 -8.4684)"
   gradientUnits="userSpaceOnUse"
   id="RadialGradient_4"
   r="19.0436">&#10;<stop
   offset="0"
   stop-color="#378427"
   id="stop28" />&#10;<stop
   offset="1"
   stop-color="#439531"
   id="stop30" />&#10;</radialGradient>&#10;<radialGradient
   cx="123.984"
   cy="39.7173"
   gradientTransform="matrix(0.831428 0 0 0.831428 -81.3843 -14.6556)"
   gradientUnits="userSpaceOnUse"
   id="RadialGradient_5"
   r="19.0436">&#10;<stop
   offset="0"
   stop-color="#378427"
   id="stop33" />&#10;<stop
   offset="1"
   stop-color="#439531"
   id="stop35" />&#10;</radialGradient>&#10;</defs>&#10;&#10;<clipPath
   id="ArtboardFrame">&#10;<rect
   height="144"
   width="144"
   x="0"
   y="0"
   id="rect57" />&#10;</clipPath>&#10;<g
   clip-path="url(#ArtboardFrame)"
   id="Layer-5">&#10;<path
   d="M-23.2282 128.61C-24.2008 126.619-10.734 142.039-10.3079 142.911C-8.85481 145.886-6.83094 143.626-5.24462 143.626C0.201711 143.626 5.17733 143.688 10.6437 146.486C22.0401 152.32 42.9666 146.284 53.7693 157.926C67.0387 172.227 77.0432 154.867 87.6412 158.641C96.7951 161.901 105.466 155.25 114.529 153.636C127.576 151.313 140.764 158.463 153.814 160.786C162.339 162.304 170.647 155.781 179.13 155.781L182.932-56.3973L-19.9108-65.1608L-23.2282 128.61Z"
   fill="url(#RadialGradient)"
   fill-rule="nonzero"
   opacity="1"
   stroke="none"
   id="path60" />&#10;<path
   d="M-29.7212 59.2653C-30.8018 59.8056-27.2197 60.4455-26.4615 60.7993C-23.7959 62.0433-20.9639 62.7808-18.0244 62.9086C-10.6995 63.2271-4.43745 65.889 2.68467 66.7436C16.0146 68.3432 26.9508 64.956 39.6926 65.5931C46.8535 65.9512 54.9363 69.3913 61.9357 68.8529C64.2436 68.6753 66.4844 67.8332 68.8387 67.7024C78.1454 67.1853 87.6679 69.0774 96.8344 70.3869C104.953 71.5467 113.409 70.0657 121.57 71.1539C124.494 71.5437 127.895 73.0714 130.774 73.0714C135.017 73.0714 139.424 71.5374 143.813 71.5374C147.731 71.5374 151.638 73.2351 155.702 72.4961C158.988 71.8986 165.122 68.5835 168.549 71.1539C170.974 72.9725 169.459 90.2291 169.124 92.4382C166.3 111.078 166.868 130.777 161.071 148.813C157.271 160.635 139.699 161.64 129.24 160.893C123.775 160.503 120.114 164.382 114.859 164.537C109.094 164.706 104.071 162.729 98.3684 162.619C93.5183 162.526 89.0339 164.26 84.1788 164.345C77.4026 164.464 71.7816 162.057 65.1955 161.085C58.6829 160.124 52.8331 162.871 46.4039 162.619C41.6201 162.431 37.0285 160.958 32.2143 161.085C28.0947 161.193 24.1023 162.326 19.9423 162.236C14.2131 162.111 8.62825 160.665 2.87642 160.51C-8.24271 160.209-20.7239 158.024-25.1192 145.937C-26.882 141.089-27.0481 136.055-27.612 130.98C-28.3374 124.451-28.7984 118.024-28.5707 111.422C-28.3039 103.683-28.143 92.0252-26.6532 84.5764"
   fill="url(#LinearGradient)"
   fill-rule="nonzero"
   opacity="1"
   stroke="none"
   id="path62" />&#10;<g
   opacity="1"
   id="g68">&#10;<path
   d="M138.882 60.8427C139.243 60.6622 139.455 61.8216 139.517 62.0068C140.35 64.5076 139.307 66.5678 139.676 69.1501C139.696 69.2908 139.719 69.4315 139.728 69.5734C139.737 69.6966 139.728 69.8203 139.728 69.9438C139.728 70.0496 139.737 70.1557 139.728 70.2612C139.719 70.3856 139.684 70.5072 139.676 70.6316C139.249 77.0283 139.209 83.7769 139.57 90.2625C139.696 92.545 140.633 94.766 140.84 97.0354C141.035 99.1881 140.628 101.395 140.628 103.544C140.628 104.03 140.947 109.841 140.628 109.682L138.511 109.47C138.89 109.849 138.07 108.781 137.929 108.465C137.516 107.535 137.524 106.523 137.876 105.554C139.22 101.859 137.738 98.5788 138.141 94.5485C138.778 88.1788 136.366 81.8436 136.077 75.4997C135.872 70.972 137.536 65.7038 136.659 61.3189"
   fill="#df8c55"
   fill-rule="nonzero"
   opacity="1"
   stroke="#000000"
   stroke-linecap="round"
   stroke-linejoin="round"
   stroke-width="0.442102"
   id="path64" />&#10;<path
   d="M146.131 59.0171C146.018 59.2634 147.227 58.8645 147.824 59.0436C148.169 59.147 147.291 59.941 147.613 60.1019C147.937 60.2639 148.801 60.0574 148.988 60.5252C149.11 60.8287 148.274 60.9926 148.142 61.2131C147.955 61.524 148.641 62.4786 148.565 62.5359C147.67 63.2068 147.915 62.172 147.56 63.5942C147.544 63.6558 147.513 63.7293 147.454 63.7529C146.63 64.0822 145.13 63.4361 144.173 63.2767C143.216 63.1172 143.331 64.3942 142.797 64.3349C140.428 64.0716 139.668 62.7282 137.612 62.2713C136.974 62.1295 136.118 62.6438 135.548 62.4301C134.708 62.1151 134.099 60.8996 133.22 60.7897C130.798 60.487 126.371 62.1337 125.071 58.8849C124.846 58.3211 125.859 57.8452 125.759 57.2445C125.667 56.6939 124.59 56.203 124.701 55.8159C124.831 55.3625 125.886 55.0042 125.918 54.8105C126.065 53.9305 122.781 52.9323 123.219 52.1649C123.663 51.3889 127.636 50.8543 128.458 51.2653C128.794 51.4335 129.762 52.7013 130.045 52.5882C130.296 52.4879 130.65 50.6983 130.469 50.4716C129.741 49.5624 127.937 50.3644 127.082 49.8896C125.482 49.0008 127.929 48.5409 127.4 47.8789C126.511 46.7675 125.478 48.7777 125.124 49.043C124.608 49.4302 123.855 48.2756 123.325 48.6726C123.068 48.8652 123.425 49.9282 122.955 49.9954C121.951 50.1389 118.708 50.7022 118.404 48.7255C118.212 47.4746 118.63 47.3212 119.092 46.3973C119.221 46.1405 118.498 46.0995 118.457 45.8153C118.351 45.0683 118.773 44.0735 119.039 43.3812C119.187 42.9966 119.939 42.2746 119.939 41.9526C119.939 41.4519 118.246 41.6936 118.246 41.6351C118.246 41.4219 119.456 40.3362 119.621 40.0477C122.394 35.1955 122.251 38.7249 125.177 38.7249C125.78 38.7249 125.806 37.5641 126.235 37.3491C126.572 37.1811 127.098 37.6371 127.453 37.6666C128.677 37.7687 128.694 36.1439 129.146 35.3913C129.366 35.0244 130.521 35.4708 130.521 35.3384C130.521 35.12 129.7 32.2554 129.622 32.2165C127.2 31.0054 122.054 32.0608 124.436 28.0893C126.558 24.5528 134.922 31.069 137.241 29.4121C141.986 26.023 131.666 25.8573 138.617 21.6867C139.582 21.1079 139.152 22.0913 139.464 22.2159C139.852 22.3712 140.48 22.0234 140.945 22.163C142.041 22.4915 143.505 24.0104 144.544 24.7028C145.482 25.3281 145.94 27.318 147.03 27.4543C150.931 27.9418 145.523 28.5164 145.761 29.9412C145.824 30.3243 146.285 30.3116 146.554 30.3116C149.086 30.3116 152.825 30.6664 153.803 33.2748C154.726 35.7359 152.448 35.7874 152.269 36.5025C151.926 37.8744 153.588 39.4781 153.168 40.9472C152.787 42.2837 150.872 42.7234 150.523 44.122C150.04 46.0546 152.406 48.0588 150.681 49.7838C149.718 50.7474 145.504 52.1407 145.178 53.1173C144.214 56.0108 146.772 57.6199 146.131 59.0171Z"
   fill="url(#RadialGradient_2)"
   fill-rule="nonzero"
   opacity="1"
   stroke="#000000"
   stroke-linecap="round"
   stroke-linejoin="round"
   stroke-width="0.79"
   id="path66" />&#10;</g>&#10;<path
   d="M-4.96892 15.4243C0.911079 12.4843 4.26599 14.4595 10.0546 15.4243C11.8487 15.7233 13.5559 14.577 15.2056 14.852C18.7565 15.4438 21.6882 16.9982 25.6505 16.9982C44.3147 16.9982 63.0181 18.3897 81.5953 20.5752C92.4682 21.8544 103.616 19.4299 114.504 20.0029C124.142 20.5102 133.776 19.7167 143.407 19.7167C146.736 19.7167 152.779 20.8069 155.568 18.7152L153.784-10.532L-5.75237-20.5031L-4.96892 15.4243Z"
   fill="#02a0bc"
   fill-rule="nonzero"
   opacity="1"
   stroke="none"
   id="path70" />&#10;<path
   d="M236.237-21.4618C235.014-22.2773 235.97-18.4971 236.237-17.0515C236.27-16.8738 236.493-16.7959 236.621-16.668"
   fill="url(#LinearGradient_2)"
   fill-rule="nonzero"
   opacity="1"
   stroke="none"
   id="path72" />&#10;<g
   opacity="1"
   id="g78">&#10;<path
   d="M74.1777 51.6644C73.8167 51.4839 73.6045 52.6433 73.5428 52.8285C72.7092 55.3294 73.7529 57.3895 73.384 59.9718C73.3639 60.1126 73.3406 60.2532 73.3311 60.3951C73.3229 60.5183 73.3311 60.6421 73.3311 60.7655C73.3311 60.8713 73.323 60.9775 73.3311 61.083C73.3407 61.2074 73.3757 61.329 73.384 61.4534C73.8105 67.85 73.8502 74.5987 73.4899 81.0843C73.3631 83.3667 72.4262 85.5878 72.2199 87.8572C72.0242 90.0099 72.4316 92.2165 72.4316 94.3655C72.4316 94.852 72.1122 100.663 72.4316 100.503L74.5481 100.292C74.1692 100.671 74.9894 99.6032 75.1302 99.2865C75.5433 98.357 75.5352 97.3445 75.1831 96.3762C73.8391 92.6803 75.3215 89.4005 74.9185 85.3703C74.2816 79.0006 76.6938 72.6653 76.9821 66.3214C77.1879 61.7937 75.5231 56.5256 76.4001 52.1406"
   fill="#df8c55"
   fill-rule="nonzero"
   opacity="1"
   stroke="#000000"
   stroke-linecap="round"
   stroke-linejoin="round"
   stroke-width="0.442102"
   id="path74" />&#10;<path
   d="M66.9286 49.8389C67.0415 50.0851 65.8323 49.6863 65.2354 49.8654C64.8908 49.9687 65.7688 50.7627 65.447 50.9236C65.1229 51.0857 64.2584 50.8791 64.0713 51.3469C63.9499 51.6504 64.7856 51.8144 64.9179 52.0348C65.1045 52.3458 64.4183 53.3004 64.4946 53.3576C65.3892 54.0286 65.1444 52.9937 65.4999 54.4159C65.5154 54.4776 65.5467 54.551 65.6058 54.5747C66.4291 54.904 67.93 54.2578 68.8864 54.0984C69.8432 53.939 69.7284 55.216 70.2621 55.1567C72.6319 54.8934 73.3918 53.5499 75.4477 53.0931C76.0857 52.9513 76.9412 53.4656 77.5113 53.2518C78.3513 52.9368 78.9604 51.7214 79.8395 51.6115C82.2616 51.3087 86.6886 52.9555 87.9881 49.7066C88.2136 49.1429 87.2001 48.667 87.3003 48.0663C87.392 47.5156 88.4691 47.0247 88.3585 46.6376C88.229 46.1842 87.1738 45.8259 87.1415 45.6323C86.9948 44.7523 90.2786 43.754 89.8401 42.9866C89.3967 42.2107 85.4237 41.6761 84.6017 42.0871C84.2653 42.2553 83.2972 43.5231 83.0143 43.4099C82.7636 43.3097 82.4096 41.5201 82.591 41.2934C83.3183 40.3842 85.1227 41.1862 85.9774 40.7113C87.5773 39.8225 85.1304 39.3626 85.6599 38.7006C86.549 37.5893 87.5816 39.5995 87.9352 39.8647C88.4516 40.252 89.205 39.0974 89.7343 39.4943C89.9912 39.687 89.6345 40.75 90.1047 40.8172C91.109 40.9606 94.3511 41.5239 94.6552 39.5472C94.8477 38.2964 94.4293 38.143 93.9673 37.2191C93.8389 36.9622 94.5617 36.9212 94.6023 36.637C94.709 35.8901 94.2865 34.8953 94.0203 34.203C93.8723 33.8183 93.1207 33.0963 93.1207 32.7743C93.1207 32.2737 94.814 32.5153 94.814 32.4568C94.814 32.2436 93.603 31.1579 93.4382 30.8694C90.6656 26.0173 90.8088 29.5466 87.8823 29.5466C87.2796 29.5466 87.254 28.3858 86.824 28.1709C86.488 28.0028 85.9614 28.4588 85.607 28.4883C84.3821 28.5904 84.3653 26.9656 83.9138 26.2131C83.6937 25.8462 82.538 26.2925 82.538 26.1602C82.538 25.9417 83.3598 23.0772 83.4376 23.0383C85.8598 21.8272 91.006 22.8826 88.6231 18.911C86.5012 15.3745 78.1378 21.8908 75.818 20.2339C71.0733 16.8448 81.3932 16.679 74.4423 12.5085C73.4776 11.9297 73.907 12.9131 73.5957 13.0376C73.2073 13.193 72.5792 12.8452 72.1141 12.9847C71.019 13.3133 69.5545 14.8322 68.516 15.5246C67.578 16.1499 67.1193 18.1398 66.0291 18.2761C62.1287 18.7636 67.5365 19.3381 67.299 20.763C67.2351 21.146 66.7745 21.1334 66.5053 21.1334C63.9738 21.1334 60.2343 21.4882 59.2562 24.0965C58.3332 26.5576 60.6119 26.6091 60.7906 27.3242C61.1336 28.6962 59.4714 30.2998 59.8911 31.769C60.273 33.1055 62.1871 33.5451 62.5368 34.9438C63.0199 36.8764 60.6531 38.8805 62.378 40.6055C63.3417 41.5692 67.5555 42.9624 67.881 43.9391C68.8455 46.8325 66.2879 48.4416 66.9286 49.8389Z"
   fill="url(#RadialGradient_3)"
   fill-rule="nonzero"
   opacity="1"
   stroke="#000000"
   stroke-linecap="round"
   stroke-linejoin="round"
   stroke-width="0.79"
   id="path76" />&#10;</g>&#10;<g
   opacity="1"
   id="g84">&#10;<path
   d="M115.774 56.6473C115.413 56.4668 115.201 57.6263 115.139 57.8114C114.306 60.3123 115.35 62.3724 114.981 64.9547C114.961 65.0955 114.937 65.2362 114.928 65.378C114.92 65.5012 114.928 65.625 114.928 65.7484C114.928 65.8543 114.92 65.9604 114.928 66.0659C114.937 66.1903 114.972 66.3119 114.981 66.4363C115.407 72.833 115.447 79.5816 115.087 86.0672C114.96 88.3496 114.023 90.5707 113.817 92.8401C113.621 94.9928 114.028 97.1994 114.028 99.3485C114.028 99.8349 113.709 105.646 114.028 105.486L116.145 105.275C115.766 105.654 116.586 104.586 116.727 104.269C117.14 103.34 117.132 102.327 116.78 101.359C115.436 97.6632 116.918 94.3835 116.515 90.3532C115.878 83.9835 118.29 77.6482 118.579 71.3044C118.785 66.7766 117.12 61.5085 117.997 57.1236"
   fill="#df8c55"
   fill-rule="nonzero"
   opacity="1"
   stroke="#000000"
   stroke-linecap="round"
   stroke-linejoin="round"
   stroke-width="0.442102"
   id="path80" />&#10;<path
   d="M108.525 54.8218C108.638 55.068 107.429 54.6692 106.832 54.8483C106.487 54.9517 107.365 55.7457 107.044 55.9066C106.72 56.0686 105.855 55.8621 105.668 56.3299C105.547 56.6334 106.382 56.7973 106.515 57.0177C106.701 57.3287 106.015 58.2833 106.091 58.3406C106.986 59.0115 106.741 57.9766 107.097 59.3988C107.112 59.4605 107.143 59.534 107.202 59.5576C108.026 59.8869 109.527 59.2408 110.483 59.0814C111.44 58.9219 111.325 60.1989 111.859 60.1396C114.229 59.8763 114.988 58.5329 117.044 58.076C117.682 57.9342 118.538 58.4485 119.108 58.2347C119.948 57.9197 120.557 56.7043 121.436 56.5944C123.858 56.2917 128.285 57.9384 129.585 54.6895C129.81 54.1258 128.797 53.6499 128.897 53.0492C128.989 52.4986 130.066 52.0077 129.955 51.6206C129.826 51.1672 128.77 50.8089 128.738 50.6152C128.592 49.7352 131.875 48.737 131.437 47.9695C130.993 47.1936 127.02 46.659 126.198 47.07C125.862 47.2382 124.894 48.506 124.611 48.3928C124.36 48.2926 124.006 46.503 124.188 46.2763C124.915 45.3671 126.719 46.1691 127.574 45.6943C129.174 44.8054 126.727 44.3455 127.257 43.6836C128.146 42.5722 129.178 44.5824 129.532 44.8476C130.048 45.2349 130.802 44.0803 131.331 44.4773C131.588 44.6699 131.231 45.7329 131.701 45.8001C132.706 45.9436 135.948 46.5068 136.252 44.5302C136.444 43.2793 136.026 43.1259 135.564 42.202C135.436 41.9452 136.158 41.9042 136.199 41.6199C136.306 40.873 135.883 39.8782 135.617 39.1859C135.469 38.8013 134.717 38.0793 134.717 37.7573C134.717 37.2566 136.411 37.4983 136.411 37.4398C136.411 37.2265 135.2 36.1408 135.035 35.8524C132.262 31.0002 132.406 34.5295 129.479 34.5295C128.876 34.5295 128.851 33.3688 128.421 33.1538C128.085 32.9858 127.558 33.4417 127.204 33.4713C125.979 33.5733 125.962 31.9485 125.51 31.196C125.29 30.8291 124.135 31.2754 124.135 31.1431C124.135 30.9247 124.956 28.0601 125.034 28.0212C127.456 26.8101 132.603 27.8655 130.22 23.8939C128.098 20.3575 119.734 26.8737 117.415 25.2168C112.67 21.8277 122.99 21.6619 116.039 17.4914C115.074 16.9126 115.504 17.896 115.192 18.0206C114.804 18.1759 114.176 17.8281 113.711 17.9676C112.616 18.2962 111.151 19.8151 110.113 20.5075C109.175 21.1328 108.716 23.1227 107.626 23.259C103.725 23.7465 109.133 24.321 108.896 25.7459C108.832 26.129 108.371 26.1163 108.102 26.1163C105.57 26.1163 101.831 26.4711 100.853 29.0795C99.9299 31.5406 102.209 31.5921 102.387 32.3072C102.73 33.6791 101.068 35.2827 101.488 36.7519C101.87 38.0884 103.784 38.5281 104.133 39.9267C104.617 41.8593 102.25 43.8635 103.975 45.5884C104.938 46.5521 109.152 47.9454 109.478 48.922C110.442 51.8154 107.885 53.4246 108.525 54.8218Z"
   fill="url(#RadialGradient_4)"
   fill-rule="nonzero"
   opacity="1"
   stroke="#000000"
   stroke-linecap="round"
   stroke-linejoin="round"
   stroke-width="0.79"
   id="path82" />&#10;</g>&#10;<g
   opacity="1"
   id="g90">&#10;<path
   d="M19.1036 39.4835C18.8035 39.3334 18.627 40.2974 18.5757 40.4513C17.8826 42.5306 18.7504 44.2435 18.4437 46.3905C18.427 46.5075 18.4076 46.6245 18.3997 46.7424C18.3929 46.8449 18.3997 46.9477 18.3997 47.0504C18.3997 47.1384 18.393 47.2266 18.3997 47.3144C18.4077 47.4178 18.4368 47.5189 18.4437 47.6223C18.7983 52.9407 18.8313 58.5517 18.5317 63.944C18.4263 65.8417 17.6474 67.6883 17.4758 69.5752C17.3131 71.365 17.6518 73.1996 17.6518 74.9864C17.6518 75.3909 17.3862 80.2225 17.6518 80.0897L19.4116 79.9137C19.0965 80.2288 19.7785 79.3412 19.8955 79.0778C20.239 78.305 20.2322 77.4632 19.9395 76.6582C18.8221 73.5852 20.0546 70.8584 19.7195 67.5075C19.1899 62.2116 21.1955 56.9442 21.4353 51.6697C21.6064 47.9053 20.2222 43.5252 20.9513 39.8794"
   fill="#df8c55"
   fill-rule="nonzero"
   opacity="1"
   stroke="#000000"
   stroke-linecap="round"
   stroke-linejoin="round"
   stroke-width="0.442102"
   id="path86" />&#10;<path
   d="M13.0765 37.9657C13.1703 38.1704 12.165 37.8388 11.6687 37.9877C11.3822 38.0736 12.1122 38.7338 11.8446 38.8676C11.5752 39.0023 10.8564 38.8306 10.7008 39.2195C10.5999 39.4719 11.2948 39.6082 11.4047 39.7914C11.5598 40.05 10.9893 40.8437 11.0528 40.8913C11.7966 41.4491 11.593 40.5887 11.8886 41.7712C11.9015 41.8225 11.9275 41.8835 11.9766 41.9031C12.6612 42.177 13.909 41.6397 14.7042 41.5072C15.4998 41.3746 15.4043 42.4364 15.8481 42.3871C17.8184 42.1681 18.4501 41.0512 20.1595 40.6713C20.6899 40.5534 21.4012 40.981 21.8752 40.8033C22.5736 40.5414 23.08 39.5309 23.8109 39.4395C25.8247 39.1878 29.5055 40.5569 30.586 37.8557C30.7734 37.387 29.9308 36.9913 30.014 36.4919C30.0904 36.0341 30.9859 35.6259 30.8939 35.3041C30.7862 34.9271 29.9089 34.6292 29.8821 34.4682C29.7601 33.7365 32.4904 32.9066 32.1257 32.2685C31.7571 31.6234 28.4539 31.1789 27.7704 31.5206C27.4907 31.6604 26.6858 32.7146 26.4506 32.6205C26.2422 32.5371 25.9478 31.0492 26.0986 30.8607C26.7034 30.1048 28.2036 30.7716 28.9142 30.3768C30.2444 29.6378 28.2099 29.2554 28.6502 28.705C29.3895 27.781 30.2479 29.4524 30.542 29.6729C30.9713 29.9949 31.5977 29.0349 32.0378 29.3649C32.2514 29.5251 31.9548 30.4089 32.3457 30.4648C33.1807 30.5841 35.8763 31.0524 36.1292 29.4089C36.2892 28.3689 35.9413 28.2414 35.5573 27.4732C35.4505 27.2597 36.0514 27.2256 36.0852 26.9893C36.1739 26.3682 35.8226 25.5411 35.6012 24.9656C35.4782 24.6457 34.8534 24.0455 34.8534 23.7777C34.8534 23.3615 36.2612 23.5624 36.2612 23.5138C36.2612 23.3365 35.2544 22.4338 35.1173 22.194C32.8121 18.1597 32.9312 21.0941 30.498 21.0941C29.9969 21.0941 29.9756 20.129 29.6181 19.9503C29.3387 19.8106 28.9009 20.1897 28.6062 20.2142C27.5878 20.2991 27.5739 18.9482 27.1985 18.3225C27.0154 18.0175 26.0546 18.3886 26.0546 18.2785C26.0546 18.0969 26.7378 15.7152 26.8025 15.6829C28.8164 14.6759 33.0951 15.5534 31.1139 12.2514C29.3497 9.31105 22.3961 14.7288 20.4674 13.3512C16.5225 10.5334 25.1027 10.3956 19.3236 6.92814C18.5215 6.44688 18.8786 7.26452 18.6197 7.36807C18.2967 7.49725 17.7745 7.20808 17.3879 7.32408C16.4773 7.59724 15.2597 8.86014 14.3963 9.43578C13.6164 9.95571 13.235 11.6101 12.3286 11.7235C9.08571 12.1288 13.5819 12.6065 13.3844 13.7912C13.3313 14.1096 12.9484 14.0991 12.7245 14.0991C10.6197 14.0991 7.51064 14.3941 6.69738 16.5628C5.93005 18.609 7.82456 18.6518 7.9732 19.2464C8.25836 20.387 6.87631 21.7203 7.22531 22.9418C7.54279 24.0531 9.13427 24.4186 9.42499 25.5815C9.8267 27.1883 7.85882 28.8546 9.29301 30.2888C10.0942 31.09 13.5977 32.2484 13.8684 33.0604C14.6703 35.4661 12.5438 36.804 13.0765 37.9657Z"
   fill="url(#RadialGradient_5)"
   fill-rule="nonzero"
   opacity="1"
   stroke="#000000"
   stroke-linecap="round"
   stroke-linejoin="round"
   stroke-width="0.79"
   id="path88" />&#10;</g>&#10;</g>&#10;<g
   id="Layer-8">&#10;<path
   d="M140.087 111.555C140.091 111.267 140.57 110.803 140.926 110.988C141.281 111.173 141.302 111.831 140.942 111.933C140.582 112.036 140.083 111.843 140.087 111.555Z"
   fill="#000000"
   fill-rule="nonzero"
   opacity="1"
   stroke="#000000"
   stroke-linecap="butt"
   stroke-linejoin="round"
   stroke-width="0.79"
   id="path93" />&#10;<path
   d="M139.499 113.037C138.935 113.037 138.421 114.569 139.499 114.569"
   fill="none"
   opacity="1"
   stroke="#000000"
   stroke-linecap="round"
   stroke-linejoin="round"
   stroke-width="0.79"
   id="path95" />&#10;<path
   d="M138.217 112.396C137.821 113.583 135.295 114.543 135.295 115.71"
   fill="none"
   opacity="1"
   stroke="#000000"
   stroke-linecap="round"
   stroke-linejoin="round"
   stroke-width="0.79"
   id="path97" />&#10;<path
   d="M136.791 111.683C136.791 112.381 136.934 113.08 136.934 113.785"
   fill="none"
   opacity="1"
   stroke="#000000"
   stroke-linecap="round"
   stroke-linejoin="round"
   stroke-width="0.79"
   id="path99" />&#10;<path
   d="M133.941 110.757C134.535 111.054 135.075 111.311 135.722 111.505"
   fill="none"
   opacity="1"
   stroke="#000000"
   stroke-linecap="round"
   stroke-linejoin="round"
   stroke-width="0.79"
   id="path101" />&#10;<path
   d="M136.364 109.474C136.364 106.221 134.261 112.279 134.261 112.217"
   fill="none"
   opacity="1"
   stroke="#000000"
   stroke-linecap="round"
   stroke-linejoin="round"
   stroke-width="0.79"
   id="path103" />&#10;<path
   d="M132.587 111.327C132.61 111.315 132.634 111.303 132.658 111.291"
   fill="none"
   opacity="1"
   stroke="#000000"
   stroke-linecap="round"
   stroke-linejoin="round"
   stroke-width="0.79"
   id="path105" />&#10;<path
   d="M130.556 108.832C132.578 108.832 131.483 107.159 130.805 107.799C130.042 108.519 130.13 111.467 131.482 110.115"
   fill="none"
   opacity="1"
   stroke="#000000"
   stroke-linecap="round"
   stroke-linejoin="round"
   stroke-width="0.79"
   id="path107" />&#10;<path
   d="M128.667 108.013C128.667 106.563 126.791 107.064 127.135 108.369C127.461 109.609 128.823 108.257 129.166 107.835C130.033 106.768 129.936 105.467 130.449 104.271C130.644 103.816 129.934 105.118 129.7 105.554C129.429 106.06 127.846 110.323 129.558 109.296"
   fill="none"
   opacity="1"
   stroke="#000000"
   stroke-linecap="round"
   stroke-linejoin="round"
   stroke-width="0.79"
   id="path109" />&#10;<path
   d="M126.417 106.758C127.388 105.787 123.731 105.819 124.355 107.942C124.655 108.959 125.673 108.226 125.978 107.832C126.147 107.614 126.669 106.678 126.422 106.801C125.873 107.076 125.668 108.96 126.247 109.043"
   fill="none"
   opacity="1"
   stroke="#000000"
   stroke-linecap="round"
   stroke-linejoin="round"
   stroke-width="0.79"
   id="path111" />&#10;<path
   d="M122.36 106.694C121.534 107.245 123.152 103.219 123.18 103.274C123.892 104.698 122.509 111.694 120.685 108.654C120.603 108.518 120.471 108.386 120.471 108.227C120.471 107.302 123.617 106.409 124.427 106.409"
   fill="none"
   opacity="1"
   stroke="#000000"
   stroke-linecap="round"
   stroke-linejoin="round"
   stroke-width="0.79"
   id="path113" />&#10;<g
   opacity="1"
   id="g119">&#10;<path
   d="M5.36227 115.684C4.95784 115.078 5.185 117.137 5.20643 117.866C5.25352 119.467 5.18927 121.024 5.0506 122.619C5.00785 123.111 5.0506 124.593 5.0506 124.099"
   fill="none"
   opacity="1"
   stroke="#000000"
   stroke-linecap="round"
   stroke-linejoin="round"
   stroke-width="2.15855"
   id="path115" />&#10;<path
   d="M1.38844 115.918C0.307847 115.558 3.8231 115.84 4.34933 115.84C6.57849 115.84 9.17015 115.61 11.284 114.905"
   fill="none"
   opacity="1"
   stroke="#000000"
   stroke-linecap="round"
   stroke-linejoin="round"
   stroke-width="2.15855"
   id="path117" />&#10;</g>&#10;<path
   d="M12.4633 118.369C12.0775 119.14 13.3039 123.982 12.1517 124.212C11.7171 124.299 11.84 122.807 11.84 122.732C11.84 121.259 12.5595 115.08 14.563 115.287C16.597 115.497 17.2831 116.118 17.4773 117.248C17.6305 118.14 15.5786 119.154 13.9438 119.771C15.0947 121.274 15.7211 121.934 16.2909 122.611C16.907 123.342 17.4775 123.823 18.5409 123.823"
   fill="none"
   opacity="1"
   stroke="#000000"
   stroke-linecap="round"
   stroke-linejoin="round"
   stroke-width="2.15855"
   id="path121" />&#10;<g
   opacity="1"
   id="g129">&#10;<path
   d="M22.5927 116.031C21.8071 118.388 21.8497 119.096 20.8006 121.719C20.742 121.866 20.2833 122.523 20.6447 122.342"
   fill="none"
   opacity="1"
   stroke="#000000"
   stroke-linecap="round"
   stroke-linejoin="round"
   stroke-width="2.15855"
   id="path123" />&#10;<path
   d="M22.8264 115.719C23.1989 116.464 25.0952 123.165 25.3198 123.277"
   fill="none"
   opacity="1"
   stroke="#000000"
   stroke-linecap="round"
   stroke-linejoin="round"
   stroke-width="2.15855"
   id="path125" />&#10;<path
   d="M21.7356 121.174C22.6474 121.174 23.5509 121.018 24.4627 121.018"
   fill="none"
   opacity="1"
   stroke="#000000"
   stroke-linecap="round"
   stroke-linejoin="round"
   stroke-width="2.15855"
   id="path127" />&#10;</g>&#10;<path
   d="M28.2807 122.654C28.0294 123.157 29.0165 121.777 29.2157 121.252C29.8013 119.708 30.3151 118.155 31.0079 116.654C31.0956 116.464 31.1209 116.043 31.3195 116.109C31.6727 116.227 30.986 122.61 31.3195 123.277C31.5217 123.682 32.4769 120.996 32.5662 120.706C32.8528 119.775 33.9176 116.048 35.1375 115.641C35.4492 115.538 35.4108 116.25 35.4492 116.576C35.6421 118.217 35.8341 119.834 35.9167 121.485C35.9583 122.317 35.7609 124.811 35.7609 123.979"
   fill="none"
   opacity="1"
   stroke="#000000"
   stroke-linecap="round"
   stroke-linejoin="round"
   stroke-width="2.15855"
   id="path131" />&#10;<path
   d="M42.7735 116.031C42.7735 115.135 38.488 116.107 38.488 117.122C38.488 118.652 42.8536 119.117 43.3968 121.018C44.2045 123.845 41.5172 123.95 39.8126 122.732"
   fill="none"
   opacity="1"
   stroke="#000000"
   stroke-linecap="round"
   stroke-linejoin="round"
   stroke-width="2.15855"
   id="path133" />&#10;<path
   d="M13.1907 128.811C12.9503 128.931 12.97 128.87 12.9573 129.278C12.8677 132.143 12.9455 134.762 12.4125 137.605C12.3441 137.97 12.5314 138.812 12.179 138.695C11.8491 138.585 12.0209 137.055 12.0234 136.982C12.0869 135.14 12.6794 128.146 15.9145 128.578C17.4491 128.782 16.9124 131.922 16.2257 132.78C14.6617 134.735 11.9804 132.563 14.825 135.037C15.1989 135.362 15.5585 135.704 15.9145 136.049C16.6407 136.752 18.4158 139.297 19.7277 138.772"
   fill="none"
   opacity="1"
   stroke="#000000"
   stroke-linecap="round"
   stroke-linejoin="round"
   stroke-width="2.15855"
   id="path135" />&#10;<path
   d="M23.6187 129.434C23.6187 128.837 23.6187 130.627 23.6187 131.224C23.6187 132.154 22.9099 137.874 22.6849 136.749"
   fill="none"
   opacity="1"
   stroke="#000000"
   stroke-linecap="round"
   stroke-linejoin="round"
   stroke-width="2.15855"
   id="path137" />&#10;<path
   d="M19.4942 128.578C19.2867 128.578 19.9093 128.574 20.1168 128.578C21.2583 128.599 22.3995 128.634 23.5409 128.656C24.7859 128.679 26.0378 128.811 27.2763 128.811"
   fill="none"
   opacity="1"
   stroke="#000000"
   stroke-linecap="round"
   stroke-linejoin="round"
   stroke-width="2.15855"
   id="path139" />&#10;<path
   d="M20.039 137.449C18.7362 137.449 23.0305 137.162 24.7082 137.372C25.6461 137.489 26.8872 137.372 27.9767 137.527"
   fill="none"
   opacity="1"
   stroke="#000000"
   stroke-linecap="round"
   stroke-linejoin="round"
   stroke-width="2.15855"
   id="path141" />&#10;<path
   d="M34.3581 129.667C34.3581 127.207 27.6392 133.402 31.0118 137.449C33.396 140.311 40.0961 131.153 33.5798 133.325"
   fill="none"
   opacity="1"
   stroke="#000000"
   stroke-linecap="round"
   stroke-linejoin="round"
   stroke-width="2.15855"
   id="path143" />&#10;<path
   d="M40.1168 129.278C40.1168 131.953 39.967 133.017 39.4164 135.659C39.35 135.978 39.1051 138.047 39.1051 137.138"
   fill="none"
   opacity="1"
   stroke="#000000"
   stroke-linecap="round"
   stroke-linejoin="round"
   stroke-width="2.15855"
   id="path145" />&#10;<path
   d="M39.4943 133.636C41.0305 134.148 42.5688 133.597 44.0857 134.103"
   fill="none"
   opacity="1"
   stroke="#000000"
   stroke-linecap="round"
   stroke-linejoin="round"
   stroke-width="2.15855"
   id="path147" />&#10;<path
   d="M45.4087 129.356C45.2394 129.441 44.7466 136.478 44.2413 137.994"
   fill="none"
   opacity="1"
   stroke="#000000"
   stroke-linecap="round"
   stroke-linejoin="round"
   stroke-width="2.15855"
   id="path149" />&#10;<path
   d="M52.2569 137.761C52.2569 138.202 52.2235 136.877 52.2569 136.438C52.3754 134.878 52.5883 133.327 52.7238 131.768C52.7784 131.141 52.2482 129.685 52.4904 129.2"
   fill="none"
   opacity="1"
   stroke="#000000"
   stroke-linecap="round"
   stroke-linejoin="round"
   stroke-width="2.15855"
   id="path151" />&#10;<path
   d="M47.6655 128.578C50.5268 129.722 54.5889 128.733 57.5487 128.733"
   fill="none"
   opacity="1"
   stroke="#000000"
   stroke-linecap="round"
   stroke-linejoin="round"
   stroke-width="2.15855"
   id="path153" />&#10;<path
   d="M63.4632 129.045C62.7846 127.688 58.2653 129.281 58.5604 130.757C58.9682 132.796 62.1904 133.52 62.5293 135.893C62.7517 137.45 59.5968 137.724 58.8717 136.516"
   fill="none"
   opacity="1"
   stroke="#000000"
   stroke-linecap="round"
   stroke-linejoin="round"
   stroke-width="2.15855"
   id="path155" />&#10;</g>&#10;<g
   clip-path="url(#ArtboardFrame)"
   id="Layer-4">&#10;<g
   opacity="1"
   id="g164">&#10;<path
   d="M104.136 143.893L135.242 118.68L139.528 120.361L139.362 122.117L107.737 147.691L103.642 146.264L104.136 143.893Z"
   fill="#9e3600"
   fill-rule="nonzero"
   opacity="1"
   stroke="#000000"
   stroke-linecap="butt"
   stroke-linejoin="round"
   stroke-width="0.79"
   id="path158" />&#10;<path
   d="M139.528 120.361L108.262 145.476"
   fill="none"
   opacity="1"
   stroke="#000000"
   stroke-linecap="butt"
   stroke-linejoin="round"
   stroke-width="0.79"
   id="path160" />&#10;<path
   d="M104.599 143.9L108.157 145.294L107.643 147.459"
   fill="none"
   opacity="1"
   stroke="#000000"
   stroke-linecap="butt"
   stroke-linejoin="round"
   stroke-width="0.79"
   id="path162" />&#10;</g>&#10;<g
   opacity="1"
   id="g172">&#10;<path
   d="M91.3026 138.149L122.408 112.935L126.695 114.616L126.528 116.372L94.9033 141.947L90.8091 140.52L91.3026 138.149Z"
   fill="#9e3600"
   fill-rule="nonzero"
   opacity="1"
   stroke="#000000"
   stroke-linecap="butt"
   stroke-linejoin="round"
   stroke-width="0.79"
   id="path166" />&#10;<path
   d="M126.695 114.616L95.4285 139.731"
   fill="none"
   opacity="1"
   stroke="#000000"
   stroke-linecap="butt"
   stroke-linejoin="round"
   stroke-width="0.79"
   id="path168" />&#10;<path
   d="M91.7653 138.156L95.3237 139.55L94.8101 141.714"
   fill="none"
   opacity="1"
   stroke="#000000"
   stroke-linecap="butt"
   stroke-linejoin="round"
   stroke-width="0.79"
   id="path170" />&#10;</g>&#10;<g
   opacity="1"
   id="g180">&#10;<path
   d="M79.9137 132.108L111.019 106.895L115.306 108.576L115.139 110.332L83.5144 135.907L79.4202 134.479L79.9137 132.108Z"
   fill="#9e3600"
   fill-rule="nonzero"
   opacity="1"
   stroke="#000000"
   stroke-linecap="butt"
   stroke-linejoin="round"
   stroke-width="0.79"
   id="path174" />&#10;<path
   d="M115.306 108.576L84.0396 133.691"
   fill="none"
   opacity="1"
   stroke="#000000"
   stroke-linecap="butt"
   stroke-linejoin="round"
   stroke-width="0.79"
   id="path176" />&#10;<path
   d="M80.3763 132.115L83.9348 133.509L83.4212 135.674"
   fill="none"
   opacity="1"
   stroke="#000000"
   stroke-linecap="butt"
   stroke-linejoin="round"
   stroke-width="0.79"
   id="path178" />&#10;</g>&#10;<g
   opacity="1"
   id="g188">&#10;<path
   d="M67.7746 125.97L98.8804 100.757L103.167 102.438L103 104.194L71.3753 129.769L67.2811 128.341L67.7746 125.97Z"
   fill="#9e3600"
   fill-rule="nonzero"
   opacity="1"
   stroke="#000000"
   stroke-linecap="butt"
   stroke-linejoin="round"
   stroke-width="0.79"
   id="path182" />&#10;<path
   d="M103.167 102.438L71.9006 127.553"
   fill="none"
   opacity="1"
   stroke="#000000"
   stroke-linecap="butt"
   stroke-linejoin="round"
   stroke-width="0.79"
   id="path184" />&#10;<path
   d="M68.2373 125.977L71.7957 127.371L71.2821 129.536"
   fill="none"
   opacity="1"
   stroke="#000000"
   stroke-linecap="butt"
   stroke-linejoin="round"
   stroke-width="0.79"
   id="path186" />&#10;</g>&#10;<g
   opacity="1"
   id="g196">&#10;<path
   d="M54.4376 120.627L85.5433 95.4133L89.8296 97.0942L89.6632 98.8503L58.0383 124.425L53.9441 122.998L54.4376 120.627Z"
   fill="#9e3600"
   fill-rule="nonzero"
   opacity="1"
   stroke="#000000"
   stroke-linecap="butt"
   stroke-linejoin="round"
   stroke-width="0.79"
   id="path190" />&#10;<path
   d="M89.8296 97.0942L58.5635 122.21"
   fill="none"
   opacity="1"
   stroke="#000000"
   stroke-linecap="butt"
   stroke-linejoin="round"
   stroke-width="0.79"
   id="path192" />&#10;<path
   d="M54.9002 120.634L58.4586 122.028L57.9451 124.192"
   fill="none"
   opacity="1"
   stroke="#000000"
   stroke-linecap="butt"
   stroke-linejoin="round"
   stroke-width="0.79"
   id="path194" />&#10;</g>&#10;<g
   opacity="1"
   id="g204">&#10;<path
   d="M45.0996 113.398L76.2053 88.1848L80.4915 89.8657L80.3252 91.6217L48.7002 117.196L44.606 115.769L45.0996 113.398Z"
   fill="#9e3600"
   fill-rule="nonzero"
   opacity="1"
   stroke="#000000"
   stroke-linecap="butt"
   stroke-linejoin="round"
   stroke-width="0.79"
   id="path198" />&#10;<path
   d="M80.4915 89.8657L49.2255 114.981"
   fill="none"
   opacity="1"
   stroke="#000000"
   stroke-linecap="butt"
   stroke-linejoin="round"
   stroke-width="0.79"
   id="path200" />&#10;<path
   d="M45.5622 113.405L49.1206 114.799L48.607 116.964"
   fill="none"
   opacity="1"
   stroke="#000000"
   stroke-linecap="butt"
   stroke-linejoin="round"
   stroke-width="0.79"
   id="path202" />&#10;</g>&#10;<g
   opacity="1"
   id="g212">&#10;<path
   d="M31.8665 107.015L62.9722 81.8012L67.2584 83.4821L67.0921 85.2381L35.4671 110.813L31.3729 109.386L31.8665 107.015Z"
   fill="#9e3600"
   fill-rule="nonzero"
   opacity="1"
   stroke="#000000"
   stroke-linecap="butt"
   stroke-linejoin="round"
   stroke-width="0.79"
   id="path206" />&#10;<path
   d="M67.2584 83.4821L35.9924 108.597"
   fill="none"
   opacity="1"
   stroke="#000000"
   stroke-linecap="butt"
   stroke-linejoin="round"
   stroke-width="0.79"
   id="path208" />&#10;<path
   d="M32.3291 107.022L35.8875 108.416L35.3739 110.58"
   fill="none"
   opacity="1"
   stroke="#000000"
   stroke-linecap="butt"
   stroke-linejoin="round"
   stroke-width="0.79"
   id="path210" />&#10;</g>&#10;<g
   opacity="1"
   id="g220">&#10;<path
   d="M20.2109 101.29L51.3166 76.077L55.6029 77.7579L55.4366 79.5139L23.8116 105.089L19.7174 103.661L20.2109 101.29Z"
   fill="#9e3600"
   fill-rule="nonzero"
   opacity="1"
   stroke="#000000"
   stroke-linecap="butt"
   stroke-linejoin="round"
   stroke-width="0.79"
   id="path214" />&#10;<path
   d="M55.6029 77.7579L24.3368 102.873"
   fill="none"
   opacity="1"
   stroke="#000000"
   stroke-linecap="butt"
   stroke-linejoin="round"
   stroke-width="0.79"
   id="path216" />&#10;<path
   d="M20.6735 101.297L24.232 102.691L23.7184 104.856"
   fill="none"
   opacity="1"
   stroke="#000000"
   stroke-linecap="butt"
   stroke-linejoin="round"
   stroke-width="0.79"
   id="path218" />&#10;</g>&#10;<g
   opacity="1"
   id="g228">&#10;<path
   d="M9.83965 94.7545L40.9454 69.5411L45.2316 71.222L45.0653 72.978L13.4403 98.5528L9.34609 97.1255L9.83965 94.7545Z"
   fill="#9e3600"
   fill-rule="nonzero"
   opacity="1"
   stroke="#000000"
   stroke-linecap="butt"
   stroke-linejoin="round"
   stroke-width="0.79"
   id="path222" />&#10;<path
   d="M45.2316 71.222L13.9656 96.3374"
   fill="none"
   opacity="1"
   stroke="#000000"
   stroke-linecap="butt"
   stroke-linejoin="round"
   stroke-width="0.79"
   id="path224" />&#10;<path
   d="M10.3023 94.7614L13.8607 96.1554L13.3471 98.3198"
   fill="none"
   opacity="1"
   stroke="#000000"
   stroke-linecap="butt"
   stroke-linejoin="round"
   stroke-width="0.79"
   id="path226" />&#10;</g>&#10;<g
   opacity="1"
   id="g236">&#10;<path
   d="M-1.01585 89.2363L30.0899 64.0229L34.3761 65.7038L34.2098 67.4598L2.5848 93.0346L-1.5094 91.6073L-1.01585 89.2363Z"
   fill="#9e3600"
   fill-rule="nonzero"
   opacity="1"
   stroke="#000000"
   stroke-linecap="butt"
   stroke-linejoin="round"
   stroke-width="0.79"
   id="path230" />&#10;<path
   d="M34.3761 65.7038L3.11006 90.8192"
   fill="none"
   opacity="1"
   stroke="#000000"
   stroke-linecap="butt"
   stroke-linejoin="round"
   stroke-width="0.79"
   id="path232" />&#10;<path
   d="M-0.55323 89.2432L3.00518 90.6372L2.49159 92.8016"
   fill="none"
   opacity="1"
   stroke="#000000"
   stroke-linecap="butt"
   stroke-linejoin="round"
   stroke-width="0.79"
   id="path234" />&#10;</g>&#10;<path
   d="M115.856 145.655L-1.32005 82.8182L-1.24255 79.3406L120.596 144.689"
   fill="#898888"
   fill-rule="nonzero"
   opacity="1"
   stroke="#000000"
   stroke-linecap="butt"
   stroke-linejoin="round"
   stroke-width="0.79"
   id="path238" />&#10;<path
   d="M122.502 147.605L-5.18491 79.4184"
   fill="none"
   opacity="1"
   stroke="#000000"
   stroke-linecap="butt"
   stroke-linejoin="round"
   stroke-width="0.79"
   id="path240" />&#10;</g>&#10;<g
   clip-path="url(#ArtboardFrame)"
   id="Layer-3">&#10;<clipPath
   clip-rule="nonzero"
   id="ClipPath_2">&#10;<path
   d="M99.7741 112.515L113.449 109.624L148.693 120.075L149.36 135.306L99.7741 112.515Z"
   id="path243" />&#10;</clipPath>&#10;<g
   clip-path="url(#ClipPath_2)"
   id="g254">&#10;<g
   opacity="1"
   id="g252">&#10;<path
   d="M146.61 128.699L0.87728 66.4529L0.0441075 64.6285L148.228 125.843"
   fill="#898888"
   fill-rule="nonzero"
   opacity="1"
   stroke="#000000"
   stroke-linecap="butt"
   stroke-linejoin="round"
   stroke-width="0.79"
   id="path246" />&#10;<path
   d="M0.0441075 64.6285L148.228 125.843"
   fill="none"
   opacity="1"
   stroke="#000000"
   stroke-linecap="butt"
   stroke-linejoin="round"
   stroke-width="0.79"
   id="path248" />&#10;<path
   d="M149.961 128.46L0.384206 64.89"
   fill="none"
   opacity="1"
   stroke="#000000"
   stroke-linecap="butt"
   stroke-linejoin="round"
   stroke-width="0.79"
   id="path250" />&#10;</g>&#10;</g>&#10;</g>&#10;<g
   clip-path="url(#ArtboardFrame)"
   id="Layer-6">&#10;<path
   d="M-0.1875 21.25L-0.1875 26.25L-0.1875 28.625L-0.25 28.625L0.125 59.375L0.0625 60.375L0.125 60.4062L0.25 70.625L9.53125 74.8438L9.5 75.5L0.40625 71.4688L0.5625 75.375L26.4062 88.1875C25.6357 90.3976 24.4233 94.994 28.9375 97.1875C32.9099 99.1178 35.6819 95.9042 36.4688 93.375L27.6875 88.8125L69.5312 109.562L79.875 111.438C79.875 111.437 80.2207 111.553 80.25 111.562C80.25 111.562 80.3714 111.593 80.375 111.594C81.0264 111.814 85.1481 113.232 86.7812 113.656C87.3314 113.799 88.7823 113.703 90.4375 113.562C96.9923 113.195 109.19 110.98 112.656 110.469C112.66 110.45 112.652 110.425 112.656 110.406C112.67 110.404 112.705 110.408 112.719 110.406C112.752 109.148 113.156 108.562 113.156 108.562L112.969 108.594C113.389 106.346 113.605 104.007 112.062 103.594L112.469 103.531L112.75 101.125L113.031 97.4688L86.0625 101.844L86.0312 101.812L113.156 97.125L112.094 93.9375L106.812 94.7812C108.406 94.5071 111.366 94.0874 112.156 93.9062C112.254 91.568 111.226 49.6376 107.281 43.2188C106.53 43.3459 103.202 43.764 101.094 44.0625C102.914 43.7891 107.25 43.1562 107.25 43.1562C107.25 43.1562 106.21 34.3538 104.594 33.875C104.407 33.8196 102.748 34.0449 101.844 34.125C102.862 34.0062 104.301 33.7569 105.031 33.6875C105.175 31.5774 102.375 30.125 102.375 30.125C102.375 30.125 25.3422 23.4137-0.1875 21.25ZM20.125 79.625L68.625 101.688L79.9375 109.156L80.375 109.344L80.3438 109.531L80.2812 109.5L68.1562 101.688L20.0625 80.25L20.125 79.625ZM40.5625 95.25C39.7922 97.4507 38.9777 102.72 43.5 104.938C46.4045 106.362 49.8381 102.998 50.625 100.469L40.5625 95.25Z"
   fill="#ffffff"
   fill-rule="nonzero"
   opacity="1"
   stroke="none"
   id="path257" />&#10;</g>&#10;<g
   id="Layer-9" />&#10;<g
   clip-path="url(#ArtboardFrame)"
   id="Layer-1">&#10;<path
   d="M112.693 108.65C112.693 108.65 113.644 104.543 112.304 103.809C110.964 103.074 85.6616 108.115 85.6616 108.115C85.6616 108.115 81.6762 105.255 80.9831 104.779C80.29 104.302 81.1131 99.1041 81.1131 99.1041L71.4961 88.0577L72.864 46.9497L71.1831 38.3073L-0.245754 28.6117L-0.172466 71.1945L68.2948 101.679L80.3304 109.662L86.2596 111.967L112.693 108.65Z"
   fill="#5bcefa"
   fill-rule="nonzero"
   opacity="1"
   stroke="none"
   id="path261" />&#10;<path
   d="M86.7956 113.651C85.0353 113.193 79.8643 111.441 79.8643 111.441L69.5361 109.558L-0.38858 74.7949L-0.377102 70.9285L68.1691 101.686L80.2838 109.506L86.7577 111.959L113.162 108.573C113.162 108.573 112.745 109.146 112.712 110.403C106.097 111.379 89.3156 114.306 86.7956 113.651Z"
   fill="#f5a9b8"
   fill-rule="nonzero"
   opacity="1"
   stroke="none"
   id="path263" />&#10;<path
   d="M81.2095 98.8376C80.5626 90.4375 76.3251 53.2391 73.0425 47.689"
   fill="none"
   opacity="1"
   stroke="#000000"
   stroke-linecap="butt"
   stroke-linejoin="round"
   stroke-width="0.79"
   id="path265" />&#10;<path
   d="M107.272 43.207C111.216 49.6258 112.252 91.5743 112.154 93.9126C106.986 95.0973 81.0783 98.7364 81.0783 98.7364L71.3708 87.8823L72.8656 47.9288C72.8656 47.9288 103.095 43.914 107.272 43.207Z"
   fill="#686868"
   fill-opacity="0.325637"
   fill-rule="nonzero"
   opacity="1"
   stroke="#000000"
   stroke-linecap="butt"
   stroke-linejoin="round"
   stroke-width="0.79"
   id="path267" />&#10;<path
   d="M85.9832 101.866L85.4754 107.89L112.455 103.52L112.758 101.122L113.021 97.4682L85.9832 101.866Z"
   fill="#5bcefa"
   fill-rule="nonzero"
   opacity="1"
   stroke="#000000"
   stroke-linecap="butt"
   stroke-linejoin="round"
   stroke-width="0.79"
   id="path269" />&#10;<path
   d="M85.5289 107.899C85.5289 107.899 87.4135 111.783 86.3476 113.347C88.6147 114.812 108.166 111.121 112.672 110.457C113.267 107.841 114.13 103.864 111.926 103.512"
   fill="none"
   opacity="1"
   stroke="#000000"
   stroke-linecap="butt"
   stroke-linejoin="round"
   stroke-width="0.79"
   id="path271" />&#10;<path
   d="M87.4859 103.238L87.1329 106.364L92.6291 105.482L92.9065 102.33L87.4859 103.238Z"
   fill="none"
   opacity="1"
   stroke="#000000"
   stroke-linecap="butt"
   stroke-linejoin="round"
   stroke-width="0.79"
   id="path273" />&#10;<path
   d="M106.694 99.8339L106.467 102.809L110.678 102.128L111.056 99.254L106.694 99.8339Z"
   fill="none"
   opacity="1"
   stroke="#000000"
   stroke-linecap="butt"
   stroke-linejoin="round"
   stroke-width="0.79"
   id="path275" />&#10;<path
   d="M97.7924 101.618C96.5269 102.507 97.7924 105.738 99.3273 102.399C100.62 105.226 102.182 101.834 100.701 101.214"
   fill="none"
   opacity="1"
   stroke="#000000"
   stroke-linecap="round"
   stroke-linejoin="round"
   stroke-width="0.79"
   id="path277" />&#10;<path
   d="M91.1836 103.086C90.642 103.099 90.1582 104.003 90.6553 104.593C91.1525 105.183 91.805 104.842 92.0381 104.096C92.2439 103.437 91.8206 103.07 91.1836 103.086Z"
   fill="#606060"
   fill-rule="nonzero"
   opacity="1"
   stroke="#000000"
   stroke-linecap="butt"
   stroke-linejoin="round"
   stroke-width="0.79"
   id="path279" />&#10;<path
   d="M107.751 100.306C107.462 100.321 107.086 100.996 107.318 101.42C107.689 102.101 108.262 101.621 108.432 101.296C108.602 100.971 108.515 100.264 107.751 100.306Z"
   fill="#606060"
   fill-rule="nonzero"
   opacity="1"
   stroke="#000000"
   stroke-linecap="butt"
   stroke-linejoin="round"
   stroke-width="0.79"
   id="path281" />&#10;<path
   d="M85.7124 108.018C83.7832 105.607 80.5954 104.646 80.5954 104.646L80.2409 111.577C80.2409 111.577 84.8618 113.176 86.5131 113.312C86.8906 111.372 86.4241 108.908 85.7124 108.018Z"
   fill="none"
   opacity="1"
   stroke="#000000"
   stroke-linecap="butt"
   stroke-linejoin="round"
   stroke-width="0.79"
   id="path283" />&#10;<path
   d="M81.1549 98.9218L80.583 104.645C80.583 104.645 83.4276 105.465 85.4086 107.777L86.069 101.833L81.1549 98.9218Z"
   fill="#5bcefa"
   fill-rule="nonzero"
   opacity="1"
   stroke="#000000"
   stroke-linecap="butt"
   stroke-linejoin="round"
   stroke-width="0.79"
   id="path285" />&#10;<path
   d="M112.459 97.2535"
   fill="none"
   opacity="1"
   stroke="#000000"
   stroke-linecap="butt"
   stroke-linejoin="round"
   stroke-width="0.79"
   id="path287" />&#10;<path
   d="M107.258 43.1692C107.258 43.1692 106.204 34.3452 104.588 33.8664C102.972 33.3876 71.0116 38.5947 71.0116 38.5947C71.0116 38.5947 73.5852 46.6148 73.2859 47.5126C72.9867 48.4104 107.258 43.1692 107.258 43.1692Z"
   fill="none"
   opacity="1"
   stroke="#000000"
   stroke-linecap="butt"
   stroke-linejoin="round"
   stroke-width="0.79"
   id="path289" />&#10;<path
   d="M-0.195799 28.652L71.0651 38.3112C71.0651 38.3112 97.2476 34.437 105.031 33.6978C105.175 31.5876 102.376 30.1195 102.376 30.1195C102.376 30.1195 25.3337 23.4067-0.195799 21.243"
   fill="#313131"
   fill-rule="nonzero"
   opacity="1"
   stroke="#000000"
   stroke-linecap="butt"
   stroke-linejoin="round"
   stroke-width="0.79"
   id="path291" />&#10;<path
   d="M70.0949 38.066"
   fill="#24f9f7"
   fill-rule="nonzero"
   opacity="1"
   stroke="none"
   id="path293" />&#10;<path
   d="m -0.09665296,26.406468 c 4.66861996,0.5384 67.50029996,7.7891 69.04909996,8.2847 1.6086,0.5147 1.7012,3.8127 1.7012,3.8127"
   fill="none"
   opacity="1"
   stroke="#000000"
   stroke-linecap="butt"
   stroke-linejoin="round"
   stroke-width="0.79"
   id="path295" />&#10;<path
   d="M-0.195799 26.2593C-0.195799 26.2593-0.102251 26.2701 0.0779747 26.2909"
   fill="none"
   opacity="1"
   stroke="#000000"
   stroke-linecap="butt"
   stroke-linejoin="round"
   stroke-width="0.79"
   id="path297" />&#10;<path
   d="M68.6195 34.6566L102.376 30.1195"
   fill="none"
   opacity="1"
   stroke="#000000"
   stroke-linecap="butt"
   stroke-linejoin="round"
   stroke-width="0.79"
   id="path299" />&#10;<path
   d="M70.5239 48.3372L67.9022 101.317L53.4608 94.7771L56.075 45.3773L70.5239 48.3372Z"
   fill="#aeb4be"
   fill-rule="nonzero"
   opacity="1"
   stroke="#000000"
   stroke-linecap="butt"
   stroke-linejoin="round"
   stroke-width="0.79"
   id="path301" />&#10;<path
   d="M51.8265 44.7341L49.0595 78.1062L36.2305 73.5783L38.3267 42.2186L51.8265 44.7341Z"
   fill="#aeb4be"
   fill-rule="nonzero"
   opacity="1"
   stroke="#000000"
   stroke-linecap="butt"
   stroke-linejoin="round"
   stroke-width="0.79"
   id="path303" />&#10;<path
   d="M24.9108 39.5354L36.7336 41.8832L34.8889 72.9914L22.7307 68.2958L24.9108 39.5354Z"
   fill="#aeb4be"
   fill-rule="nonzero"
   opacity="1"
   stroke="#000000"
   stroke-linecap="butt"
   stroke-linejoin="round"
   stroke-width="0.79"
   id="path305" />&#10;<path
   d="M23.9046 41.4639"
   fill="none"
   opacity="1"
   stroke="#000000"
   stroke-linecap="butt"
   stroke-linejoin="round"
   stroke-width="0.79"
   id="path307" />&#10;<path
   d="M60.386 97.9931L63.372 47.0331"
   fill="none"
   opacity="1"
   stroke="#000000"
   stroke-linecap="butt"
   stroke-linejoin="round"
   stroke-width="0.79"
   id="path309" />&#10;<path
   d="M20.0561 80.2639L23.2926 39.2859L11.9258 37.0394L9.48837 75.4946L20.0561 80.2639Z"
   fill="#aeb4be"
   fill-rule="nonzero"
   opacity="1"
   stroke="#000000"
   stroke-linecap="butt"
   stroke-linejoin="round"
   stroke-width="0.79"
   id="path311" />&#10;<path
   d="M14.2154 77.3849L17.4473 37.9565"
   fill="none"
   opacity="1"
   stroke="#000000"
   stroke-linecap="butt"
   stroke-linejoin="round"
   stroke-width="0.79"
   id="path313" />&#10;<path
   d="M10.0499 36.8074L8.11085 63.3085L0.0671714 60.3639L1.43172 35.1556L10.0499 36.8074Z"
   fill="#aeb4be"
   fill-rule="nonzero"
   opacity="1"
   stroke="#000000"
   stroke-linecap="butt"
   stroke-linejoin="round"
   stroke-width="0.79"
   id="path315" />&#10;<path
   d="M90.9511 92.88L86.1168 91.188L86.6442 86.5518L104.622 84.2517C104.622 84.2517 107.534 87.0045 107.212 90.3675C103.909 90.959 90.9511 92.88 90.9511 92.88Z"
   fill="none"
   opacity="1"
   stroke="#000000"
   stroke-linecap="butt"
   stroke-linejoin="round"
   stroke-width="0.79"
   id="path317" />&#10;<path
   d="M87.1263 86.7516C88.4887 87.5426 91.3452 89.8496 90.9936 92.5303"
   fill="none"
   opacity="1"
   stroke="#000000"
   stroke-linecap="butt"
   stroke-linejoin="round"
   stroke-width="0.79"
   id="path319" />&#10;<path
   d="M106.219 89.5766"
   fill="none"
   opacity="1"
   stroke="#000000"
   stroke-linecap="butt"
   stroke-linejoin="round"
   stroke-width="0.79"
   id="path321" />&#10;<path
   d="M71.5231 87.6966L111.854 82.1789"
   fill="none"
   opacity="1"
   stroke="#000000"
   stroke-linecap="butt"
   stroke-linejoin="round"
   stroke-width="0.79"
   id="path323" />&#10;<path
   d="M76.3534 39.7503C75.3118 40.2729 73.7758 40.0235 72.966 40.8361"
   fill="none"
   opacity="1"
   stroke="#000000"
   stroke-linecap="round"
   stroke-linejoin="round"
   stroke-width="0.7"
   id="path325" />&#10;<path
   d="M74.7538 40.2696C75.4902 41.7476 74.8479 43.9671 74.8479 45.5572"
   fill="none"
   opacity="1"
   stroke="#000000"
   stroke-linecap="round"
   stroke-linejoin="round"
   stroke-width="0.7"
   id="path327" />&#10;<path
   d="M77.2943 44.8018C77.2943 45.3528 77.3414 43.7005 77.3414 43.1495C77.3414 42.3857 77.6136 40.4382 77.2943 39.7975"
   fill="none"
   opacity="1"
   stroke="#000000"
   stroke-linecap="round"
   stroke-linejoin="round"
   stroke-width="0.7"
   id="path329" />&#10;<path
   d="M77.7648 40.2696C77.9907 39.8162 79.4939 39.2672 79.6467 40.0336C79.9481 41.5456 78.4434 41.231 77.953 41.9692C77.8742 42.0878 78.6304 42.564 78.7058 42.6301C79.394 43.2345 79.7214 44.0075 80.1172 44.8018"
   fill="none"
   opacity="1"
   stroke="#000000"
   stroke-linecap="round"
   stroke-linejoin="round"
   stroke-width="0.7"
   id="path331" />&#10;<path
   d="M82.5636 39.2782C82.5636 40.4331 81.9404 41.3787 81.6227 42.4413C81.5188 42.7887 81.2463 44.3768 81.2463 43.952"
   fill="none"
   opacity="1"
   stroke="#000000"
   stroke-linecap="round"
   stroke-linejoin="round"
   stroke-width="0.7"
   id="path333" />&#10;<path
   d="M82.6107 39.231C83.2247 40.4633 83.5046 43.2039 83.5046 44.6602"
   fill="none"
   opacity="1"
   stroke="#000000"
   stroke-linecap="round"
   stroke-linejoin="round"
   stroke-width="0.7"
   id="path335" />&#10;<path
   d="M83.0812 42.6301C82.7587 43.2773 81.5555 42.7583 81.0581 43.0078"
   fill="none"
   opacity="1"
   stroke="#000000"
   stroke-linecap="round"
   stroke-linejoin="round"
   stroke-width="0.79"
   id="path337" />&#10;<path
   d="M84.1687 44.2929C84.3675 43.4675 84.7088 42.6625 84.9552 41.8443C84.9999 41.6959 85.5755 39.4765 85.6762 39.5044C86.3464 39.6899 85.7777 44.3535 86.0694 44.2929C86.6565 44.1711 86.843 36.8174 87.5769 41.0824C87.6424 41.4633 87.7071 41.8391 87.7735 42.2252C87.8788 42.8367 88.0319 43.416 88.3634 43.9664"
   fill="none"
   opacity="1"
   stroke="#000000"
   stroke-linecap="round"
   stroke-linejoin="round"
   stroke-width="0.7"
   id="path339" />&#10;<path
   d="M90.4151 38.7941C90.2418 38.7071 88.5534 39.4687 88.7214 39.9743C88.8872 40.4736 90.5862 40.2255 90.8856 41.2018C91.1722 42.1365 90.0369 43.5932 89.0978 43.2791"
   fill="none"
   opacity="1"
   stroke="#000000"
   stroke-linecap="round"
   stroke-linejoin="round"
   stroke-width="0.7"
   id="path341" />&#10;<path
   d="M91.8961 39.8699C91.8892 39.7347 92.0365 40.4971 92.0641 40.6655C92.1442 41.1552 92.5957 42.3635 92.3038 42.8543C92.1728 43.0745 92.1457 41.4659 92.1454 41.4232C92.1388 40.3308 91.9068 39.4076 92.9839 38.7979C93.5696 38.4664 93.9039 39.7677 93.7289 40.1141C93.5797 40.4095 92.4265 41.041 92.4701 41.1525C92.7282 41.8117 94.513 41.9983 94.9678 42.8018"
   fill="none"
   opacity="1"
   stroke="#000000"
   stroke-linecap="round"
   stroke-linejoin="round"
   stroke-width="0.7"
   id="path343" />&#10;<path
   d="M95.0103 38.6936C95.0477 39.4187 94.928 41.0811 95.34 41.8091"
   fill="none"
   opacity="1"
   stroke="#000000"
   stroke-linecap="round"
   stroke-linejoin="round"
   stroke-width="0.7"
   id="path345" />&#10;<path
   d="M94.1368 38.9926C93.634 38.539 95.51 38.8018 96.0993 38.4682"
   fill="none"
   opacity="1"
   stroke="#000000"
   stroke-linecap="round"
   stroke-linejoin="round"
   stroke-width="0.7"
   id="path347" />&#10;<path
   d="M94.6798 42.1394C94.2767 42.1601 95.3946 41.9081 95.471 41.887C95.9824 41.7454 96.5102 41.6667 97.0157 41.4688"
   fill="none"
   opacity="1"
   stroke="#000000"
   stroke-linecap="round"
   stroke-linejoin="round"
   stroke-width="0.7"
   id="path349" />&#10;<path
   d="M98.104 37.9417C98.0902 37.6722 96.3827 40.8794 97.8579 41.3831C98.6357 41.6487 99.8719 39.3312 98.0016 40.0635"
   fill="none"
   opacity="1"
   stroke="#000000"
   stroke-linecap="round"
   stroke-linejoin="round"
   stroke-width="0.7"
   id="path351" />&#10;<path
   d="M99.4528 37.83C99.5006 38.7578 99.5587 40.0404 99.867 40.9411"
   fill="none"
   opacity="1"
   stroke="#000000"
   stroke-linecap="round"
   stroke-linejoin="round"
   stroke-width="0.7"
   id="path353" />&#10;<path
   d="M99.7931 39.5056C100.119 39.4889 100.368 39.4526 100.673 39.3333"
   fill="none"
   opacity="1"
   stroke="#000000"
   stroke-linecap="round"
   stroke-linejoin="round"
   stroke-width="0.7"
   id="path355" />&#10;<path
   d="M100.682 37.8514C100.516 37.5592 100.679 37.8259 100.754 38.4402C100.824 39.0144 100.874 39.5909 100.928 40.1668C100.964 40.5561 100.93 41.095 101.244 41.3781"
   fill="none"
   opacity="1"
   stroke="#000000"
   stroke-linecap="round"
   stroke-linejoin="round"
   stroke-width="0.7"
   id="path357" />&#10;<path
   d="M102.104 37.5242C102.45 38.4082 102.472 39.7386 102.522 40.7197"
   fill="none"
   opacity="1"
   stroke="#000000"
   stroke-linecap="round"
   stroke-linejoin="round"
   stroke-width="0.7"
   id="path359" />&#10;<path
   d="M101.177 37.6142C101.422 37.6016 103.225 37.5085 103.32 37.2923"
   fill="none"
   opacity="1"
   stroke="#000000"
   stroke-linecap="round"
   stroke-linejoin="round"
   stroke-width="0.7"
   id="path361" />&#10;<path
   d="M104.482 36.8514C103.941 36.9704 103.359 37.1889 103.303 37.8011C103.226 38.6578 105.164 38.5835 105.568 39.039C106.37 39.9417 104.097 40.1156 103.756 40.0212"
   fill="none"
   opacity="1"
   stroke="#000000"
   stroke-linecap="round"
   stroke-linejoin="round"
   stroke-width="0.7"
   id="path363" />&#10;<path
   d="M40.5577 95.2404C39.7875 97.4412 38.9761 102.727 43.4985 104.945C46.403 106.369 49.8315 102.997 50.6184 100.467"
   fill="#868686"
   fill-rule="nonzero"
   opacity="1"
   stroke="#000000"
   stroke-linecap="butt"
   stroke-linejoin="round"
   stroke-width="0.79"
   id="path365" />&#10;<path
   d="M26.3942 88.1586C25.6239 90.3594 24.4111 94.9869 28.9415 97.1883C32.9139 99.1185 35.6679 95.9149 36.4548 93.3857"
   fill="#868686"
   fill-rule="nonzero"
   opacity="1"
   stroke="#000000"
   stroke-linecap="butt"
   stroke-linejoin="round"
   stroke-width="0.79"
   id="path367" />&#10;<path
   d="M81.1705 98.895L85.8919 101.833L113.164 97.1121L112.107 93.9425L81.1705 98.895Z"
   fill="#5bcefa"
   fill-rule="nonzero"
   opacity="1"
   stroke="#000000"
   stroke-linecap="butt"
   stroke-linejoin="round"
   stroke-width="0.79"
   id="path369" />&#10;<path
   d="M37.9673 17.0862L41.9612 12.0107L59.9336 11.0122L63.0122 16.9198M41.9577 11.9827L51.8626 20.7473L60.0168 11.0122M51.7787 20.7465L35.2215 24.3251M47.6192 17.003L30.3956 23.7427"
   fill="none"
   opacity="1"
   stroke="#000000"
   stroke-linecap="round"
   stroke-linejoin="round"
   stroke-width="1.62127"
   id="path371" />&#10;<path
   d="M0.0950849 9.49698L144.804 14.8566"
   fill="none"
   opacity="1"
   stroke="#000000"
   stroke-linecap="butt"
   stroke-linejoin="round"
   stroke-width="0.79"
   id="path373" />&#10;<path
   d="M80.2138 111.499L69.5361 109.558L-1.16946 74.7039"
   fill="none"
   opacity="1"
   stroke="#000000"
   stroke-linecap="butt"
   stroke-linejoin="round"
   stroke-width="0.79"
   id="path375" />&#10;</g>&#10;</svg>
